<?xml version="1.0" encoding="UTF-8"?><svg id="Layer_2" xmlns="http://www.w3.org/2000/svg" viewBox="0 0 61.8802 103.6911"><g id="Components"><g id="ff8e4a76-cfa2-43cf-a0cd-fc0c91aa36c3_1"><path d="M24.3958,47.8708c.0616-.1508.066-.3596.2266-.4746.327-.234,1.9358.1466,2.438.1936,1.8191.1703,3.6402.221,5.4683.187.187,1.4614.2705,2.9266.3736,4.3955.0023,1.493.0363,3.099.12,4.619.0006.0117.0297-.09.067-.2241.1699.4492.0964,1.0852.0935,1.5897-.0201.1654-.0534.2046-.0999.1174-.0535.489-.0202.8551.0999,1.0982,0,.1853.0009.3766,0,.5611-.1164.2817-.1631.6195,0,.8416-.0004.0312.0004.0623,0,.0935-.0201.1657-.0537.2049-.1007.1174.0147,1.7365.001,3.3634-.0411,4.8808l.0483.1448c-.0397,1.8072-.0983,3.6169-.1385,5.4252-.7598.5438-1.6863.2684-2.5253.3263-.1988.0137-.6936.3513-.9817.046l.1114-.0464c-1.4227-.0554-2.8912-.1766-4.2244-.5147-.7431-.1564-1.4909-.2811-2.2435-.374-.7794-.1661-1.5709-.3282-2.3426-.5247.4291-3.5918.7395-7.2425,1.4078-10.7899l.6474-4.0902c-.0133.0725-.0422.0333-.0865-.1177.1576-.9422.3729-1.871.5609-2.8053.176-.5751.4039-1.3831.3739-2.0572.0975-.4159.2779-.865.3739-1.2156.1595-.2352.3084-.9415.3739-1.4026Z" style="fill:#cf9e2a;"/><path d="M28.1349,29.3559c.1667-.1432.6961-.7904.6534-.1425-.0539.8167-.4706,1.5086-.8403,2.1997-.3661.6104-.7773,1.1916-1.2336,1.7435.076-.0877.0822-.0455.0184.1267-2.96,3.5622-7.7222,5.3415-11.8716,7.1067-.6088.2002-1.232.4496-1.8695.7481-.46.262-.7405.4491-.8413.5611-1.3243.7811-2.7518,1.9164-3.3652,3.3663-.3256.7429-.5437,1.5222-.6543,2.3377.0075.4272.0698.8324.187,1.2156.0009.0311-.0009.0624,0,.0935-.1289.9023-.0481,2.6107.187,3.4599.001.0311-.001.0624,0,.0935-.1301.9721-.0956,2.1961.0935,3.1793.0009.0311-.0009.0624,0,.0935-.0372.3994-.0684.789-.0935,1.1689.1036.7688.11,1.7182.0896,2.5555-.0005.0217-.0395.0424-.0896.0628.1994.4003.1492.9928.0935,1.4494.0566.5011.073,1.0057.049,1.5138l.0445-.1112c.1725.6292.0928,1.3949.0935,2.0572-.0954.4602-.0954.9278,0,1.4026-.0001.0312,0,.0623,0,.0935l-.0682,1.6455.0682-.1494c.1728.5306.0928,1.2097.0935,1.7767-.0529,1.0472-.057,2.091-.047,3.1412,0,.0085-.0285-.1274.047-.1489.1722.6619.0931,1.4567.0935,2.1507-.0659.6113-.0684,1.2245-.0075,1.8397l-.086.0773c.1584.3634.1864,1.2324,0,1.5897l.1025.0321c-.0645.3555-.0363.4227.0845.2017-.0197.2175.039.2786-.1367.471-.3729.4082-1.4467.7992-1.992.9061-1.0136.1986-3.242.1757-4.0407.6801-.1775-.0407-.2279-.2125-.1513-.5155.2563-1.139.4314-2.2763.5252-3.4119.2816-1.7137.5607-3.4301.8413-5.143.2458-.8828.3704-1.7555.3739-2.6183.0089-.0456-.0144-.0997.0008-.1388.0189-.0455.0478-.053.0927-.0482.1691-.1213.0489.0221.0496.0123.0412-.5232.1134-1.1107.2308-1.602.1297-.8215.2232-1.6319.2804-2.4312.0582-.3165.4023-.7348.1927-1.2481l.5551-3.5209c.2991-1.9806.5939-4.0014.8843-6.0623l-.043-.3899c.2305-1.8777.4486-3.7729.6539-5.6577.1621-1.4885.1513-2.976.4678-4.4413.161-.3792.3168-.7844.4674-1.2156.1786-.3948.3967-.7688.6543-1.1221.3079-.4192.5116-.7599.9348-1.0286.5898-.5255,1.2502-.9684,1.963-1.3091.943-.4291,1.909-.8032,2.8978-1.1221,1.6572-.5562,3.4817-1.0835,5.1413-1.7767.8349-.1714,1.9199-.7606,2.5239-1.2156.8284-.4797,1.8487-1.1957,2.6174-1.7767,1.0843-.7366,2.1126-1.6717,3.0848-2.8053Z" style="fill:#cf9e2a;"/><path d="M37.7631,71.9028c.0035.0305-.0014.0626,0,.0935-.0753.7877-.0753,1.5669,0,2.3377-.0004.0312.0005.0623,0,.0935-.0986,1.3119-.1609,2.6211-.187,3.9274-.0045.123.048.3088-.0935.374-.1469.7989-.1568,1.7794-.158,2.6778,0,.0089-.0072-.149.0646-.1531.1573.1018.0907.3844.0935.5611-.0285.7116-.0285,1.4285,0,2.1507.2888,1.6106.4606,3.2548.5154,4.8935l.0454-.1246c.1599.103.0871.3839.0935.5611-.0889,1.552.22,3.2987.5164,4.8999.124.67.3426,1.5511.6053,2.1133.0483.1582.4272.9505.3727,1.0244-.4012.1144-.7864.3635-1.0966.6354-.0664.0582-.2296-.0025-.0239.1168.7653-.0298,1.482.0637,2.15.2805,1.1446.595,2.127,1.592,3.3652,2.1507.1793.1162.4286.2409.7478.374.6726.1628,1.327.3187,1.963.4676.2428.1097.5303.2138.6543.4675.0257.7084-.0048.8589-.7864.8714-.4401.0024-.8635.0548-1.2701.1572-.0621.0026-.1248-.0018-.187,0-.8763-.0732-1.7487-.1044-2.6174-.0935-1.0776-.1255-2.2571-.5254-3.3194-.56-1.2808-.0417-2.4509.2228-3.7849-.0011-.0574-.0605-.1693-.0861-.3356-.0766-.1762-1.2115-.1556-2.5473.1487-3.7573.1387-.6922.2056-1.4652.1597-2.2108-.0003-.0045-.0292.0232-.0662.0601-.1794-.4797-.245-1.0002-.3739-1.4962-.0793-.5845-.2351-1.1768-.4674-1.7767-1.1568-3.137-2.8644-7.2945-2.7147-10.6172l.4712-5.1859c.0607-.3611.0427-.759-.0541-1.1936-.0556-1.2439-.0998-1.5942-.1328-1.0506l-.0777-.5464c1.6203-.609,3.0437-1.6394,4.6581-2.2589.3523-.0518.6999-.1456,1.0429-.2814l.0788.0944Z" style="fill:#cf9e2a;"/><path d="M19.6284,73.5859c.0582-.1806.1406-.3637.2069-.5422,1.8701-.2756,3.8467-.0795,5.6799.3591-.4565,1.4451-.925,2.9911-1.5703,4.3608-.1491.3164-1.361,2.6283-1.5121,2.6485-.1762.6144-.3008,1.2378-.3739,1.8702-.5886,2.2308-1.4817,4.3746-2.2435,6.5457-.3003.643-.5713,1.3558-.6543,2.0572-.0699.1996-.1786.3863-.1887.6066-.0185.0457-.0472.0521-.0917.048-.1991.4515-.2614.7321-.187.8416-.3013.8943-.5004,1.8298-.6393,2.7768-.124.8459-.2511,1.6915-.2027,2.553-.8881-.1766-1.9217-.1965-2.7097.3281.5213-.0221,2.3393.1142,2.5711.6065.1206.2561.0997.9973.1652,1.3309.2329,1.1873,1.0508,2.769-.3063,3.439-.9797.2743-1.9014.222-2.8978.0935-.5814-.1508-1.8665-.7877-1.8783-1.4473-.0179-1.0011,1.1803-3.6644,1.4778-4.8912.3554-1.4656.4839-2.9549.588-4.4549.028-.4037.0564-4.4439.2799-4.4486.1647-1.4011.3205-2.8037.4674-4.2079.1986-1.0726.6656-2.8246,1.0766-3.8323.6037-1.48,1.7147-2.8186,2.2886-4.303.3121-.6561.6288-1.5721.6543-2.3377Z" style="fill:#cf9e2a;"/><path d="M36.0805,30.7585l-.0392.5223c.2512,2.0258.1714,3.8167.0392,5.8364-.2124,2.0716-.6105,4.0924-1.1129,6.1125-2.0239.6184-4.2095.6381-6.3065.4212-.5412-.056-2.1893-.2731-2.6087-.4762-.9177-.4442-2.4061-3.1131-2.6848-4.0938-.2913-.4223-.3225-.734-.0935-.9351.9247-.8322,1.9345-1.5871,2.8084-2.4763,1.7894-1.8207,3.1746-4.0602,3.8238-6.555,1.9218.2132,3.8989.0416,5.4737-1.159.2491.0173.6487,2.4403.7005,2.8031Z" style="fill:#cf9e2a;"/><path d="M13.7394,26.5505c1.3528-1.6164,3.1484-1.8551,5.2073-1.1001l.2144-.022c.5317.0773,1.3814.5098,1.8695.7481l1.2152.5611c.1713.0766.2604.1174.0786.1188.3946.071.7735.1873,1.1366.3488.7694.2351,1.546.5456,2.3356.703.6588.1313,1.3301.0824,1.9637.2781-1.3557,1.7628-2.9602,3.1138-4.8601,4.2554-.8773.4308-1.7809.8672-2.7108,1.3091-3.1068,1.5737-6.7008,1.9549-9.504,3.5373-.1771.1-1.5556,1.1165-1.6193,1.0442.1883-1.1189.9507-2.0037,1.3511-3.0892.2575-.6982.4728-1.5159.7049-2.2404.4811-1.4456.9485-2.9106,1.4022-4.3949.3409-.7916.6612-1.3889,1.2152-2.0572Z" style="fill:#cf9e2a;"/><path d="M50.7564,11.215c.1186.0014.1602.029.0935.0935.4843-.0805,1.1315-.0733,1.6359,0,.4483-.0712.9071-.0708,1.3554,0,1.4702-.0447,2.9435-.0603,4.4198-.0469.1175.0054.1412,1.2858-.0744,1.4458-1.0933.449-1.3132.9934-1.3283,2.0924-.3708.3602-.8221.823-.5867,1.3712.0232.0803.1605.169.1491.329-.0064.0897-.1379.1766-.1491.2321-.1864.2626-.29.8408,0,1.0286.5822.3746.702.1888.8413.9351-.0094.5694.8386.9514,1.334,1.0698.1727.2522.2577.4879.2552.7068.0146.0628.0652.1631.0935.2805.0039.5567.1968,1.3559.4674,1.6832.3188.9006,1.3791,2.7215,2.15,3.2728.2158.1505.1279.2284-.2637.2339-1.892.0436-3.8203.0172-5.7233-.0124l.1914.059c-.7385.214-1.5964.0358-2.3641.0949-1.18-1.298-1.7315-3.1389-2.0954-4.8446-.3883-1.8202-.5416-3.6792-.5884-5.5363.0503-1.1868.0814-2.4024.0935-3.6469-.0124-.1897-.0586-.7919.0935-.8416Z" style="fill:#cf9e2a;"/><path d="M27.2001,8.3162c.3374.4243.7736.7984,1.3087,1.1221.5196.4024,1.0773.687,1.6826.9351.2266.1431.2306.2312.0122.2643-.8835.3303-1.7288.6786-2.536,1.0449-.0719.1025-.213.0649-.2804.0935l-1.4022.6546c-1.3676.7767-2.7876,1.5663-4.3456,1.8714-.179-.213.3622-.281.5416-.3938.569-.3579.9516-.7782,1.3736-1.2906.3798-.6501.7601-1.4095.8413-2.1507.0531-.1605.2431-.4057.1406-.5606-.269.3509-.5053.7398-.7976,1.0724-.7993.9094-1.9508,2.1951-2.9596,2.837-.5467.3479-.869.4379-1.5241.2984-.0733.071.3838.6649.4668.7478.9506.5567,2.3042.3876,3.2717,0,.1227-.0307.2894.0202.4693-.0423.3286-.1143.8516-.5802,1.2097-.6657.1201-.0287.1216.0316.1878.0989-.2062.5537-.2699,1.1446-.4398,1.7092-.3424,1.1378-.9435,2.378-1.8943,3.1078-.7565.5013-1.6188.8076-2.587.9191l-.2173.1095c-.5351.033-1.0593-.0661-1.5891-.0944,1.6837-2.2254-.3335-3.9511-.8413-6.0772-.21-1.4322-.1925-2.7217.2804-4.1144.2924-.7087.654-1.244,1.2152-1.7767.358-.2232.7007-.4726,1.0283-.7481,2.4028-1.3607,5.3105-.5581,7.3847,1.0286Z" style="fill:#cf9e2a;"/><path d="M16.8241,1.3964c.6877.556,1.4571,1.5423,1.8695,2.3377.164.3752.1884.4419.2804.8416.2052.717.3697,1.4374.3739,2.1833l-.0935.0609c-.6026.2998-.7344.6512-1.2639,1.0179-.0837-.0221-.1023-.1487-.1382-.1763-1.5496-1.7028-4.4664-1.6529-6.1695-.3741-.3848.1787-.7941.4992-1.2152.6546-.5487.096-.985.1895-1.3087.2805-.038.0053-.1241.0807-.2804.0935-.8354.0054-1.6455-.0881-2.4304-.2805-.578-.2085-1.1389-.3955-1.6826-.5611-.8024-.4156-1.6934-1.0894-2.15-1.8702-.0435-.078-.2476-.5817-.1481-.575.3956.136.7877.2653,1.1763.388,1.2867.2005,2.576.2656,3.8326-.187l1.4956-.5611,2.4304-.7481c.298-.0528.4862-.1748.5305-.1859.1728-.0433.705-.017.9223-.0051,1.6983.0929,3.1732.9213,4.39,2.0608-.004-.3488-.3203-.8231-.5146-1.1217-.2679-.352-.5793-.6717-.9348-.9351-2.5465-1.5649-4.4268-.7256-7.0108,0-.2765-.0126-.7786.0996-.9348.2805-.2905.0753-.643.2344-.9348.2805-.8313.048-1.6414.0169-2.4304-.0935-.7716-.145-1.5195-.4256-2.2435-.8416-.6772-.2734-1.1573-.879-1.4956-1.4962C.6019,1.6793.0211.4534.2323.3434c.1149.0536.2239.1241.3268.2115.4244.3596.9125.5957,1.4258.755.0734.0228.0755.1518.0871.1564.0483.0191.8799.1073,1.011.1172.5633.0891,1.2537.0671,1.7761,0,.0028-.1028.307-.0806.3739-.0935.7651.0043,1.6363-.2842,2.3369-.5611.1213-.0337.4455-.224.6543-.2805l.2933.0164C10.1579.1713,11.8362-.0212,13.5524.0873c1.2116.1666,2.305.5997,3.2717,1.3091Z" style="fill:#cf9e2a;"/><path d="M40.6609,50.2085c-.3342-4.7675-.8071-9.507-1.3101-14.2588-.0328-.3103-.1934-.7597-.1878-1.0333.0048-.2316.7501-1.5616.8916-1.6324.1847-.0924.1306.1418.1379.2326.0269.3322.0482.6532.0945.9822l-.061.1703,1.0893,7.0299.202,1.5972c-.0313-.1451-.0034-.1434.0784-.0076.0069.0416.0716.1406.0935.2805-.0681.3748.0061.9171.0935,1.1221.1039.6775.2797,1.38.3739,2.0572-.0283.7633.0906,1.6082.232,2.3806-.1901.2259-.174.2428.0485.0506.0039.0301.0753.1369.0935.2805-.0074.5755.0401,1.1658.1423,1.7709-.0872.294-.0723.296.0446.0058l.3605,2.1173c.4995,3.8765.9842,7.7567,1.509,11.6286-.0325.5272.0215,1.1052.187,1.5897.1045.747.2617,1.4975.3739,2.2442-.0056.4703.0117.9432.052,1.4187l-.3325-.2031c-.1049-.0724-.7207-.2121-.7478-.374-.6216-.1691-1.2599-.3255-1.9148-.4692.0003-.0151.2692.1133.1387.1886-.17-.0261-.4031-.0091-.5609-.0935l-.0954-.2021-.1311-3.9638-.0539.0515c-.1666-.1552-.0915-.5139-.0935-.7481.0423-.22.0482-.4419.0523-.6651.0039-.2165.0136-.923-.0523-.5505-.1709-.2152-.0918-.6418-.0935-.9351.043-.0119.0766-.024.077-.0372.0122-.4255-.0106-.9331-.0367-1.3652-.0003-.0051.0149.0736-.0402.0932-.1718-.1861-.0882-.5762-.0935-.8416-.0113-1.4699-.0424-2.9349-.0935-4.395-.1513-.9931-.2309-2.0015-.239-3.0253l-.1115-2.419-.1169-.0728Z" style="fill:#cf9e2a;"/><path d="M33.6501,49.741c-.1126-.6829-.3093-1.3641-.3743-2.0571l1.6253-.2879c.4259.7309.6575,1.5439.899,2.345.4318,1.613.7745,3.2027,1.0282,4.769.2581.8818.4451,1.7858.5609,2.7118.0834.4471.1769.8835.2804,1.3091.0755.4276.2072.8728.2804,1.3091.0983,1.515.3993,3.3735.6543,4.6755.2148,1.525.5369,3.04.6543,4.582-.076.2252-.0914.4898-.0461.7939-.5746-.0132-.7462.0027-.5148.0477-.1312.172-.4475.0788-.6543.0935-.6125-.1004-1.3574.0723-1.963.2805-.2446.0377-.4804.1441-.7483.0932-.0043-.0619.0031-.1246.0005-.1867.0712-.8601-.0327-1.9287-.1184-2.6487l-.0685-.1566c-.0018-.0311.0017-.0624,0-.0935.0403-.7817.0222-1.5796-.0541-2.3935.0195.067.0064.1168-.0393.1493-.1627-.1276-.0912-.4496-.0935-.6546.1222-.2.0548-1.0903,0-.8416-.1571-.1018-.0909-.3845-.0935-.5611.0564-.1726.0938-1.1873,0-.8416-.2338-1.0478-.1014-2.1398-.187-3.1793l-.1278-2.2196-.0591.0689c-.2232-.2731.0605-.769.001-1.0568-.0113-.0546-.1375-.0585-.1879-.5329.079-.4643-.017-1.0996-.0935-1.4026-.0831-.8159-.2621-1.6019-.2804-2.3377-.0491-.5711-.1228-1.1465-.2209-1.7261.0812-.3501.0613-.367-.0595-.0506Z" style="fill:#cf9e2a;"/><path d="M29.5371,13.0852c.2035.1933,1.642,1.9849,1.6594,2.1184.0603.4617-.8764.4214-1.1918.5946.169.2407.2949.4899.2894.7959-.0048.2681-.3497.7277-.2898.7916.0333.0355.4067-.0492.4685.3334.0455.2821-.1521.6306-.1879.9767.2014.4478.2196.8059-.0935,1.2156-.2157.1732-.2203.1671-.51.1915-.9594.0807-2.3946.0459-3.3753.0017-.1911-.0086-.3279-.0902-.508-.0987.3423.4072.8704.5801,1.3086.8407.1525.1004.2676.2497.3452.4479-.0128.5076-.0033,1.0129.0287,1.5158-.0248.4845.0262.8-.5921.6526-.0829-.0198-.3575-.1316-.6231-.1851-.5832-.2231-1.1753-.3477-1.7761-.374-.2446-.0633-.5595-.2265-.7478-.2805-.3582-.1664-.7321-.2599-1.1217-.2805-.1679-.0491-.918-.2204-.9283-.3258.2461-.279.2452-1.2284.3884-1.4297.0367-.0516.6674-.2943.8204-.3952.4289-.1851.8028-.4968,1.1217-.9351,1.0913-1.6559,1.5-3.6521,1.7914-5.5947.5253-.1844,1.0445-.404,1.5738-.577.1993.0483.4939-.0254.8837-.2213.5961-.1947.9107-.2963,1.2663.2213Z" style="fill:#cf9e2a;"/><path d="M44.9608,29.4494c-.4373.2332-.9121.3932-1.4022.4675-.3955.2135-1.3132.5684-1.751.4978-.0071-.0011.0919-.0609.0685.0632.0069.0574-.3955.313-.3755.0466.0471-.6291.3619-1.2916.469-1.9168.144-.5535.2732-1.34.187-1.9637.0176-.2076.086-.4491.0935-.5611.0957-.4727.0661-1.0072,0-1.4962l.0516-.086c1.1866.1206,1.7901-.3976,2.6593-1.0361l.7478-.7481c.6427-.7361,1.2868-1.3669,1.963-2.0572.5165-.4195.9731-.8914,1.4022-1.4026.1087-.1455.4111-.5922.6103-.2832.0417.0647.208,1.2696.26,1.5165.0666.3161.3326,1.0165.333,1.2445.0012.6601-1.4365,3.4252-1.8416,4.1307-.906,1.5777-1.6821,2.9716-3.4747,3.584Z" style="fill:#cf9e2a;"/><path d="M14.9546,43.7563c.2492.1724.298.5439.1463,1.1147l.0407.288c-.0035.0308.0043.063,0,.0935-.1185.2895-.1808.6012-.187.9351l-.0935,1.4026c.0179.5394-.1781.7441-.1762.7886.0093.224.1066.443.0863.7584-.0891,1.3852-.2838,2.7611-.1901,4.1576-.7753-.0592-1.5521.1287-2.2439.4671-.4926.348-.7134.1749-.6623-.5194l-.0855-.0417c-.3161-1.7045-.5835-3.4463-.6582-5.1859-.026-.6059-.0976-2.3926.0266-2.8799.1552-.6085,1.8578-1.8159,2.4787-1.9218.4259-.0726,1.1464.3207,1.518.5431Z" style="fill:#cf9e2a;"/><path d="M60.0107,7.9422c.0457.79-.1413,1.4757-.5609,2.0572-.0529.0399-.0923.128-.1775.1456l-8.3294.0419c.0216-.9859.3273-2.2631-.1496-3.1695-.1475-.2804-.3827-.3129-.4102-.571.1441.013.2714.0916.4207.0906,2.1681-.015,4.3811-.0407,6.5397.0085,1.3995.0319,2.4668-.4416,2.6671,1.3968Z" style="fill:#cf9e2a;"/><path d="M31.1262,23.6518c-.0783.7419-.2653,1.49-.5609,2.2442-.2154.3688-.3532.5608-.7478.7481-.4353.0955-.8715.1579-1.3087.187-.7316.0783-1.4794.0783-2.2435,0-2.8386-.5288-5.5987-2.1148-8.4834-2.6881-.1624-.0323-.3268-.0278-.4904-.0247.0617-.1621.0962-.3144.1869-.4666.5278-.5938,1.3349-1.0824,2.15-.9351,1.3797.3064,2.6453.6772,3.7968,1.1124l.1293.0098c1.0753.327,2.1504.6158,3.2717.7481.2623.1798,1.1848.2328,1.6299.1421.8325-.1697,1.0192-1.3464.8005-1.8253l-.3737-.6534c1.0779-.547,2.6678.0172,2.2432,1.4015Z" style="fill:#cf9e2a;"/><path d="M24.3023,43.9433c.5356.2109,1.2232.3315,1.7761.2805.0595.0098.282.0214.2804.0935.3054.0982.7618.2032,1.1217.0935.4565.0458,1.0015.0762,1.4022.187,1.9294.1781,4.0662.175,6.024-.2787-.0029.67.003,1.3407.0176,2.0121-.0706.0945-1.0813.1593-1.2738.1378-.0207-.0023.3864-.0149.3735.0926-3.9962.8159-8.2515.1555-12.0624-1.1753l.2841-1.8177c.3731.0435.7736.0596,1.1429.1199.3157.0516.6618.2079.9137.2548Z" style="fill:#cf9e2a;"/><path d="M11.7764,55.632c.036-.1853.011-.2848.1421-.4653.3351-.4613,2.4786-1.3373,2.8561-.8736.2907.7552.8599,1.4767,1.2083,2.1805.2566,1.1106.4124,2.2327.4674,3.3663,0,.0312.0007.0624,0,.0935.0253,1.0792-.5131,1.2548-.7342.1277l-.1071-.3147c-.0125-.0579-.0667-.1488-.0935-.2805-.0015-.4679-.0412-1.0682-.1319-1.5253-.0013-.0066.023.0863-.055.1227-.1951.057-.1696.2425-.217.3909-.2563.8016-.3846,1.3725-.0807,2.198.1648.4476.9031,1.4204.9358,1.7772.0425.4635-.4939.2597-.7335.0772-1.0076-.7671-1.41-2.3099-1.5878-3.5087l-.1847.0454c.1733.2815.0595.6157.1029.9258.1.7139.5056,1.4066.4099,2.1147-.9182-.7541-1.1461-1.7427-1.3583-2.8538-.026-.1363.0839-.3042-.1845-.2316-.0976.3885-.0049.9704.187,1.3091.0185.0771.1429.2826.187.4675-.007.5714-.3014.1712-.4665-.1385l-.3748-.7966c-.2786-1.0948-.3721-2.2169-.2804-3.3663.0032-.0308-.0036-.0628,0-.0935.1151-.2151.1463-.4644.0935-.7481Z" style="fill:#cf9e2a;"/><path d="M19.348,61.0556l-.2804,1.4962c-.2509,2.2692-.6034,4.885-1.1217,7.1067.1176.4669-1.4406.3811-1.4396.2973.2833-1.3849.5139-2.762.6918-4.1312.5571-3.0451,1.1803-6.0548,1.8695-9.0704.112-.181.2167-.688.187-1.0286.1043-.4412.2799-.9327.3739-1.3091.1852-.5524.3099-1.1135.3739-1.6832.0544-.2014.1388-.3896.187-.5611.3772-.8711.7379-2.1613.9348-3.1793.1223-.3452.255-.7169.3943-1.055.0486-.1179.1732-.2934.1682-.02-.714,4.3915-1.535,8.7667-2.3386,13.1377Z" style="fill:#cf9e2a;"/><path d="M31.7805,25.9895c.3887-.8267.6876-2.2874.333-3.4439.0883-.1894,1.9385.221,2.1221.4441l.7232.1944c.3373.1289.6476.3394,1.0229.4259.2626.0605.5347-.0219.7532.1352.464.0335.8067.1894,1.0283.4676-.5066.1495-1.5235,1.2478-1.963,1.6832-.3567.3473-.7306.6902-1.1217,1.0286-1.3555,1.2281-3.4331,1.3175-5.1407.934l1.2609-.5605c.3106-.0849.9007-1.296.982-1.3087Z" style="fill:#cf9e2a;"/><path d="M41.0348,24.5869c.0212.4563-.0099.9238-.0935,1.4026-.3641,2.6069-1.0409,4.768-2.7108,6.8262-.241.1264-.1979-.3189-.0935-.4675.0363-.5807.1154-1.1757.2372-1.7851.1174-.4704.0157-.9999-.4242-1.2072-.3736-.5666-1.3074-1.8706-1.3863-2.5034-.0551-.4418.311-.5152.545-.7694.2691-.2123.5807-.524.9348-.9351.1028-.1304.1895-.2725.3221-.3791.8531-.1381,1.7851-.1837,2.6692-.1819Z" style="fill:#cf9e2a;"/><path d="M50.2885,8.0353c-.2847-.2581-1.2537.2417-1.309.4406-.1821.6536.281,1.155.913,1.2215.164.0173.6524-.1872.2775.1422-1.0544.9264-2.4829-.2502-2.5055-1.4771-.0345-1.8745,2.4926-2.3568,2.624-.3272Z" style="fill:#cf9e2a;"/><path d="M53.8412,11.2151c1.5255-.0069,3.0553.0055,4.5809-.0005.0541.0539-.0238,1.4142-.0912,1.5245-.0439.0718-.9416.3588-1.2061.8723-.2054.3986-.0217.7423-.1244,1.0911-.0911.3092-.9972.805-.7287,1.4685-.0662-.2292-.1436-.2592-.0718-.587.0703-.3209.4398-.5006.259-.815.0512-.0416.2158.1586.3292-.0002.03-.6681-.0131-1.1763.5168-1.6298.5074-.4342,1.1142-.348.9289-1.1758l-.2792.047c.3702-.1576.2934-.3334.2796-.7018-1.457.0461-2.9344-.0057-4.393.0001-.0816-.0265-.0804-.0578,0-.0935Z" style="fill:#cf9e2a;"/><path d="M58.4216,15.236c.3531.0004.709-.0152,1.0677-.0469l-.0395.6079c-.0549.1088-.0724.1342-.187.187-.3743.0159-.7564.0727-1.1464.1704-.7111.2082-.9521.0579-.7231-.4509.2289-.2335.7102-.3988,1.0283-.4675Z" style="fill:#cf9e2a;"/><path d="M28.8827,44.5979c.4815-.0127.9694-.0042,1.4525-.0045,1.1315-.0006,2.2956.0492,3.4422-.1027.3962-.0525.8068-.1233,1.1814-.2668v2.0105c0,.0195.1329.1026.0942.1392l-1.0289.188-.3735-.0926c.1685-.0089,1.1677-.148,1.2105-.192.0445-.0458.0968-1.2081-.1839-1.1648.2827-.0587.1329-.4413.1873-.7013-1.3255.3195-2.6958.3385-4.052.3718-.1902.4198-.1042.0193-.2139-.0041-.1034-.0221-.2474.0572-.3589.0481-.6077-.0499-1.2092-.1571-1.8238-.1363-.0053-.1688.3481-.0894.4669-.0926Z" style="fill:#cf9e2a;"/><path d="M58.3281,16.7321l.1833.0267c.9333-.315,1.2634.4037.2722.6535-.4772.0668-.9407.1517-1.3903.2549-.0409-.0023-.1774.0129-.1867.0005-.0502-.0671-.0027-.5015.0846-.6171.1359-.1798.7922-.2795,1.0368-.3186Z" style="fill:#cf9e2a;"/><path d="M59.4502,13.646c.4303.8179-1.4659,1.0925-1.6783.8371-.4137-.4975,1.3321-1.0038,1.6783-.8371Z" style="fill:#cf9e2a;"/><path d="M6.7286,52.8267l.1365.3867-.8853,6.3456c-.1571.0247-.0876-.1762-.0925-.2801-.0094-.1976-.007-.3967.0121-.5943.1883-1.9503.5903-3.9116.8292-5.8578Z" style="fill:#cf9e2a;"/><path d="M11.6829,7.2875c-.2069-.0712.1382-.2129.1842-.2367.2824-.1462,1.0989-.6315,1.2313-.6815.0475-.018.1864.0835.3007.0679.7534-.1027,1.493-.2423,2.2586-.1605.0525.0056.0416.1436.1151.1615.4462.1084.8778.3208,1.3315.1955-.1959.3537.3325.5331.6047.7504.0419.0334.3327.2357.1434.2776-2.2052-1.6934-3.7623-1.4922-6.1695-.3741Z" style="fill:#cf9e2a;"/><path d="M41.3152,41.6992c-.3716-2.2666-.8357-4.5724-1.1395-6.8645-.0209-.1574-.116-.2665.1112-.3358.3386,2.4033.7627,4.7901,1.0282,7.2002Z" style="fill:#cf9e2a;"/><path d="M34.9587,23.1842l-.7947-.1163c-.1279-.3078-1.8114-.5494-1.9161-.4444.0248.4617.1786,1.1016.1399,1.5427-.0463.5279-.4175,1.3608-.519,1.9167-.0377-.0143-.0799-.0948-.0883-.0935.2877-1.1454.6207-2.41.1874-3.5529,1.089-.0943,2.019.3763,2.9908.7476Z" style="fill:#cf9e2a;"/><path d="M38.137,89.2956c.0821,2.2956.4517,4.8199,1.1217,7.0132-.0041.1457-.2596.0046-.2617-.0427-.0029-.0658.098-.1837.0591-.3522-.1421-.6158-.3677-1.2237-.5018-1.8461-.3425-1.5894-.4213-2.9879-.5652-4.6721-.0206-.2413-.1109-.2457.1479-.1002Z" style="fill:#cf9e2a;"/><path d="M36.0805,37.1172c-.3197.0373-.1365-.0966-.1216-.2611.1233-1.3549.408-4.0186.1209-5.2878-.0163-.072-.1767-.0576-.1749-.1021.0057-.1462.0916-.5677.1755-.7076.3178,2.2255.2285,4.1302,0,6.3587Z" style="fill:#cf9e2a;"/><path d="M40.6609,50.2085c.2566-.1679.1736-.0891.1874.1385.0485.7962.0179,1.6292.0825,2.3448.0159.1762.1953.1323.1913.1753-.0094.0995-.1296.2546-.1292.4131.0006.2356.001,1.1515.0358,1.2723.029.1006.2092.0409.2866.0512l-.1862.0924c-.0686.2986.0643.6471.0622.9099-.0006.0737-.0631.1127-.0629.1195-.0265.0817-.0578.0805-.0935,0-.0296-.5228-.187-1.3219-.187-1.8234v-1.4962c0-.5989-.1401-1.5286-.187-2.1975Z" style="fill:#cf9e2a;"/><path d="M19.1611,25.4284c-.012-.0017-.0059.1127-.2234.0927l-2.0655-.4682-.0944.2817c-.0921-.0492-.1038-.2256-.1604-.2654-.1322-.0929-1.2383.3346-1.4447.4371-.4879.2423-.7781.5278-1.1528.9038-.043.0432-.241.3271-.2804.1404.6151-.742,1.3346-1.3779,2.3141-1.5658,1.1158-.214,2.0423.2043,3.1076.4437Z" style="fill:#cf9e2a;"/><path d="M61.4128,25.7091c.1624.1161.4684.133.4674.2805h-5.3749c-.0451,0-.1406.0648-.2366.0645-.2072-.0005-.4179-.0634-.6514-.0646-.6356-.003-1.2819.026-1.9172,0-.1136-.0047-.3476.0706-.3257-.0925,2.5037-.1141,5.1336.1474,7.623.0045.1743-.01.3503.021.4156-.1924Z" style="fill:#cf9e2a;"/><path d="M17.198,65.8246c.1852.3066-.0241.8398-.0846,1.1821-.0414.2346-.0897.3444-.0966.382-.156.85-.2378,1.715-.4728,2.5497.4368-.0954,1.299.2803,1.2948-.3387l.107.0589c-.0243.104.0188.2584.0006.3746-.5039-.0091-1.0036-.0232-1.4957.0925.1582-1.4481.4858-2.8715.7473-4.301Z" style="fill:#cf9e2a;"/><path d="M13.5524.0873c-.1151.1751-.1921.1272-.353.1258-1.4166-.0129-3.1989-.1475-4.5146.4778-.1227.0583-.1983.0712-.1817.2372h-.0907s-.1883-.2797-.1883-.2797c1.7702-.4795,3.4791-.8153,5.3282-.561Z" style="fill:#cf9e2a;"/><path d="M2.896,79.9445c-.03.019-.4232.6108-.3673.2414.2108-1.3919.5131-2.7807.7412-4.1688.1705.0952.0874.3364.0673.4862-.0442.3283-.0724.7178-.1225,1.021-.1269.7666-.5268,1.6638-.3186,2.4203Z" style="fill:#cf9e2a;"/><path d="M35.8,49.741c.4516,1.4975.7965,3.0521,1.1217,4.582.013.1329-.0182.1952-.0935.187-.0877-.4122-.2127-1.3569-.5601-1.4973-.0512-.1536.1898-.0454.1911-.1442-.2653-.9621-.5019-1.9323-.7472-2.8997-.0419-.1655-.2329-.2547.0879-.2277Z" style="fill:#cf9e2a;"/><path d="M33.0892,56.5672c-.0039.3728.0037.7489-.0009,1.1216-.1434.0025-.1318-.409-.1334-.5139-.0084-.5547.0386-1.1262.0161-1.6803-.0312-.7683-.1198-1.5614-.1659-2.3367-.0169-.2832-.0586-.7431.0973-.9857.1024,1.4592.2023,2.9273.187,4.395Z" style="fill:#cf9e2a;"/><path d="M33.1827,60.8686c-.0207,1.7149-.0557,3.4238-.0935,5.143-.2579.0689-.1477-.1907-.1439-.3371.0111-.4362.1378-1.5129.0527-1.8471-.027-.106-.1904-.0193-.1904-.1068s.1634-.0009.1904-.1068c.1181-.4632-.026-1.8187-.0022-2.4222.0071-.1799-.0962-.3752.187-.323Z" style="fill:#cf9e2a;"/><path d="M22.7132,55.3515c.298-.0457.1712.1236.1592.3032-.0165.2486-.0805.6638-.1232.9175-.1564.9299-.4025,1.9551-.5969,2.9872.1249-1.4078.328-2.816.5609-4.2079Z" style="fill:#cf9e2a;"/><path d="M38.6044,64.5155l-.0921.0467c-.1896-.7127-.096-1.6279-.4685-2.2448.3115-.0517.0584-.3323.0241-.5851-.0625-.4597-.1514-.9345-.2004-1.3909-.0164-.1531-.0775-.4051.0826-.5013.2605,1.5533.4348,3.1165.6543,4.6755Z" style="fill:#cf9e2a;"/><path d="M8.6916,60.775c-.0265.0817-.0578.0805-.0935,0-.0102-.474-.0224-.9785-.0935-1.4494v-2.6183c0-.3784-.1326-.8224.0935-1.1689.0496,1.7421.0989,3.4934.0935,5.2365Z" style="fill:#cf9e2a;"/><path d="M12.5242,28.6077l-1.2863,4.4655-.1158-.0706c.4695-1.4651.7897-2.9727,1.4022-4.3949Z" style="fill:#cf9e2a;"/><path d="M15.6089,84.059c.3314.316-.2516.8807.1867.9814-.1766.1472-.3323.3011-.2848.5523.0094.0501.3503.0719.1908.2436-.0282.0304-.1487-.1363-.1856-.0462-.0453.1106-.1571.8672-.1784,1.0374-.0613.489-.044,1.0379-.1035,1.533-.1061.0162-.086-.0937-.0925-.0935.0402-1.3982.213-2.8339.4674-4.2079Z" style="fill:#cf9e2a;"/><path d="M38.0435,88.7345c-.0043.1103.0717.3925-.0925.3736-.0333-1.7212-.3226-3.431-.4683-5.1426.0265-.0817.0578-.0805.0935,0,.0531.6284.2212,1.3488.28,2.0109.0769.8667.2203,1.9078.1874,2.7581Z" style="fill:#cf9e2a;"/><path d="M35.2392,98.366c-.1455,1.1329-.1775,1.8774-.1281,3.023.0234.5443-.3035.7203.5475.7176l-.2324.0932c-.1413-.0237-.3189.0176-.4679.0005.0767-.5768-.1095-1.1706-.0995-1.7291.012-.6696.2015-1.4408.287-2.1053.0265-.0817.0578-.0805.0935,0Z" style="fill:#cf9e2a;"/><path d="M41.1282,55.7256c.0068.2693-.1283.8957.1861.8429l.0002.091-.1915.053.2489,2.3491c-.1262.3532.1667.7912-.1501,1.0588-.0084-.426-.0935-.8899-.0935-1.2624v-1.4962c0-.4301-.066-1.1508-.0935-1.6364h.0935Z" style="fill:#cf9e2a;"/><path d="M41.7826,69.2845c-.1106-.0592-.1797-.0834-.186-.233.0342-1.3008-.1288-2.5806-.0945-3.8814.0031-.1189-.0762-.4725.0925-.4671l.1879,4.5815Z" style="fill:#cf9e2a;"/><path d="M29.2566,22.9037c.1273-.2119.1525.1649.1531.2152.008.6981-.1898,1.6593-1.0533,1.7185-.2345.0161-.9613-.008-1.2146-.0499-.1746-.0289-.3709.08-.3157-.2007,1.5568.1837,2.5469.3022,2.4304-1.6832Z" style="fill:#cf9e2a;"/><path d="M25.3306,71.2482c.573.1027,1.4052.2072,1.8197.2606.9077.1168,1.8447.2015,2.7602.2079.0051.1691-.3477.0891-.4669.0926-1.2471.0363-2.8631-.2484-4.113-.4676-.0816-.0265-.0804-.0578,0-.0935Z" style="fill:#cf9e2a;"/><path d="M25.0501,32.1611c1.1662-.8815,2.0046-1.8774,3.0848-2.8053.1865.0395-.0972.2374-.1404.2805-.8517.8515-1.6426,1.7155-2.6122,2.436-.0802.0596-.2558.3095-.3322.0887Z" style="fill:#cf9e2a;"/><path d="M17.2915,13.9267c-.3477-1.4556-.2951-2.7197.2804-4.1144.2029.0925.0226.289-.0139.4066-.2535.8156-.4125,1.4813-.3588,2.3508.0252.4086.2858.979.0923,1.3571Z" style="fill:#cf9e2a;"/><path d="M58.3281,16.7321c.3655-.0584,1.1358-.3136,1.1198.2259-.0177.5965-1.5735.7365-2.0546.7092.0676-.2317.2531-.1643.4196-.1884.2276-.033,1.3621-.1726,1.4378-.2917.0567-.0892-.0072-.3293.0113-.4552l-.6543.0945.0468.1871-.3263-.2814Z" style="fill:#cf9e2a;"/><path d="M11.6829,56.4736l.2186.0883c-.0475-.0022-.1227.0112-.1273.0653-.0904,1.065.0041,2.1676.1891,3.2127v.0935c-.4689-1.2616-.4175-2.1323-.2804-3.4599Z" style="fill:#cf9e2a;"/><path d="M.746,1.8639c.0957.1895.5383.259.5614.2815.0427.0416-.1513.3749-.0931.4665.1016.16.5572-.4031.6525-.467.048.2927-.3027.3754-.2477.707.0066.0396.5652.4752.6225.5081.0492.0283.048.0595,0,.0935-.8194-.4425-1.1438-.7738-1.5891-1.5897.0265-.0817.0578-.0805.0935,0Z" style="fill:#cf9e2a;"/><path d="M30.1914,10.3734c.1411-.0073.609-.0754.6536.0923l-3.1775,1.2168c-.0544-.2522.128-.1798.2772-.2323.7878-.2773,1.6234-.5337,2.3397-.9371l-.373-.0472c-.0246-.1575.176-.0872.28-.0926Z" style="fill:#cf9e2a;"/><path d="M59.0759,18.1348c.2839.559-.1968.6581-.668.5631-.782-.1576-.2935-.4486-.2278-.3889.0733.0665-.1888.2748-.1325-.0807.3282-.1289.6974-.2909,1.0283-.0935Z" style="fill:#cf9e2a;"/><path d="M9.0655,77.8873l-.0947.1862-.0914.0003c.0678-.1534-.0008-.3044-.0008-.4203v-1.5897c0-.6265-.1288-1.3136.0935-1.9169.0007,1.1426.1885,2.6896.0935,3.7404Z" style="fill:#cf9e2a;"/><path d="M32.0609,74.8951c.0014-.1245-.0022-.2499.0009-.374.3118.2398-.0428.9471.3726,1.263.0303.084-.1787.0166-.1788.085-.0004.2215.1246.649.1262.943.0023.4178-.0317.8432-.0415,1.2619l-.0925-.9347c-.043-.7117-.1949-1.5422-.187-2.2442Z" style="fill:#cf9e2a;"/><path d="M7.4764,5.2303c-1.4828.5598-2.2842.5068-3.8326.187-.0816-.0265-.0804-.0578,0-.0935,1.3627.2927,2.4885.2242,3.8326-.0935Z" style="fill:#cf9e2a;"/><path d="M37.95,29.3559c.0299-.1835.2561.1016.2846.1363.082.0999.1797.189.184.3305l.1848-.2793c-.0736.7428-.2721,1.4693-.3662,2.2125-.0432.3414-.0317.3215-.1002.5923-.0265.0817-.0578.0805-.0935,0,.0802-.6294.4168-2.0733.2098-2.5944-.0466-.1172-.2176-.2679-.3033-.3979Z" style="fill:#cf9e2a;"/><path d="M45.3347,102.8545l-.0467-.3751c.0928.0715-.0175.1734.1797.1962.1877.0217,1.6427-.0741,1.7428-.1421.1954-.1328-.0287-.5622.1807-.7076.0775.1586.1381.7245.0063.7943-.3154.1671-1.6311.2161-2.0628.2343Z" style="fill:#cf9e2a;"/><path d="M21.1241,48.9929c.1889.0995.064.3033.0197.4399-.2687.8289-.4671,1.5517-.7003,2.3858-.0059.021-.1621.5951-.2542.3536.2992-1.0648.565-2.1356.9348-3.1793Z" style="fill:#cf9e2a;"/><path d="M50.5695,15.7035c-.0302-1.1998-.0538-2.4675.0935-3.6469.0707,1.0812-.0066,2.1921.0163,3.313.0029.1436.1322.2633-.1098.3339Z" style="fill:#cf9e2a;"/><path d="M8.3177,48.7123c.035,1.1533.1493,2.3101.187,3.4599-.2873.0519-.1754-.1437-.1865-.3229-.0558-.9038-.0913-1.8115-.1275-2.7211-.0057-.1421-.1382-.4975.127-.4159Z" style="fill:#cf9e2a;"/><path d="M37.5761,78.3549l-.2187-.0884.1274-.0652.2782-3.7738c-.0205,1.3441-.1383,2.6037-.187,3.9274Z" style="fill:#cf9e2a;"/><path d="M16.4502,59.84c-.2227-.142-.0688-.4935-.0986-.5949-.0638-.2173-.2082-.3694-.0856-.858l-.2832-1.9135c.4309.8703.47,2.3676.4674,3.3663Z" style="fill:#cf9e2a;"/><path d="M22.9936,14.8618l-.0924.3734c.0471-.3922-.4759-.0064-.7498-.0922l.0463.1877c-.8361-.2564-1.7907.2156-2.4759-.469,1.098.4756,2.1604.2778,3.2717,0Z" style="fill:#cf9e2a;"/><path d="M37.4826,57.2218c-.0265.0817-.0578.0805-.0935,0-.0538-.2795-.2532-.6027-.1877-.9359l-.1855.0951c.1357-.5588-.0631-1.2849-.1877-1.8709l.0935-.187c.2039.9591.3813,1.9347.5609,2.8988Z" style="fill:#cf9e2a;"/><path d="M18.6937,3.7342c-.0692.2228-.1473-.0723-.1846-.1397-.4532-.8181-.78-1.3452-1.5263-1.9357-.0462-.0366-.3581-.203-.1586-.2623.9394.6894,1.3981,1.259,1.8695,2.3377Z" style="fill:#cf9e2a;"/><path d="M14.6741,103.509c.1927-.1266.5476-.0115.7948.004.4473.0281.2097.0261.3723.0677.2697.0689.3962.0357.3295-.2582.1562-.0406.0394.1699.1533.1924.3041.0602.9091-.1609,1.2479-.0994-.7882.3891-2.0448.3147-2.8978.0935Z" style="fill:#cf9e2a;"/><path d="M22.5263,19.0698c-.8008.6147-1.794.9663-2.8043,1.0286l.0007-.2365c.8438.1868,1.7661-.2759,2.4571-.7178.0823-.0526.2872-.2789.3465-.0744Z" style="fill:#cf9e2a;"/><path d="M22.9002,32.4417c-.6781.4074-1.4952.8678-2.2098,1.202-.0963.045-.4299.2514-.501.1071.7914-.4009,1.5551-.8418,2.3338-1.2653.0903-.0491.3249-.2265.377-.0439Z" style="fill:#cf9e2a;"/><path d="M22.4328,33.9378c.2068.0709-.1381.2131-.184.2369-.6343.329-1.2749.6859-1.9311.967-.1197.0513-.321.2034-.4088.0118.843-.3521,1.7347-.7586,2.5239-1.2156Z" style="fill:#cf9e2a;"/><path d="M14.7676,36.9301l-2.8978,1.1221c1.0115-.5955,1.8213-.7608,2.8978-1.1221Z" style="fill:#cf9e2a;"/><path d="M8.5981,55.445c-.1564-.0969-.1759-.2535-.1891-.4188-.0558-.7015-.058-1.6706-.0569-2.3875.0003-.1647-.0862-.2995.1525-.373.0348,1.0589.063,2.1244.0935,3.1793Z" style="fill:#cf9e2a;"/><path d="M42.1565,46.7487c.1118.804.1765,1.6264.2804,2.4313l-.1853.1422c.2263-.2389-.0204-.4335-.0424-.601-.0798-.6088-.0082-1.2171-.2383-1.8342-.121-.3244-.0306-.0955.1855-.1382Z" style="fill:#cf9e2a;"/><path d="M35.1457,67.4143c.2816-.0523.1816.1428.1872.3229.0255.8228.204,1.6922-.0002,2.4824-.0394-.936-.1331-1.8718-.187-2.8053Z" style="fill:#cf9e2a;"/><path d="M57.1129,18.6958c.0976.3709.5536.6923.8699.8594.1701.0898.4988.0873.6045.1904.1714.1671.0722.5445.1148.7269l-.0922.0472c-.0227-.8747-.1532-.5787-.6559-.8422-.2354-.1234-.7811-.4859-.8935-.7082-.0925-.183.055-.2599.0524-.2735Z" style="fill:#cf9e2a;"/><path d="M29.5371,13.0852c-.005-.0048-.0527.0936-.1385.0136-.1041-.0971-.1727-.3474-.2916-.3761-.0615-.0148-1.043.2922-1.2169.3481-.0295.0095-.5034.4411-.5029.0145.6067-.1982,1.9585-.8568,2.15,0Z" style="fill:#cf9e2a;"/><path d="M23.5545,23.8388c-.1024.2632-.149.1336-.3096.0817-1.0123-.3272-2.6056-1.1535-3.6164-1.2038,1.4018.0912,2.5886.7154,3.926,1.1221Z" style="fill:#cf9e2a;"/><path d="M27.9479,31.4131c-.3726.6965-.6987,1.2486-1.2152,1.8702-.2409-.1139-.0751-.2032.0239-.3087.2058-.2194.4015-.3936.5364-.6739l-.1859-.1385c.3787.0332.4369-.2914.6534-.5158l-.1861-.1389.3734-.0944Z" style="fill:#cf9e2a;"/><path d="M4.1112,70.8741c.1392-.8497.2107-1.7827.3739-2.6183.2278.0674.1269.1818.1127.3367-.0662.7244-.2391,1.6073-.4866,2.2816Z" style="fill:#cf9e2a;"/><path d="M18.9741,4.5758c.224.2632.5607,2.1002.4547,2.2355-.0313.04-.1439-.0064-.1743.0087l-.0311-.6862-.1555-.2028.1829-.0859c-.2199-.3809-.1874-.8816-.2767-1.2694Z" style="fill:#cf9e2a;"/><path d="M6.9155,4.2952c-.763.1206-1.6694.1412-2.4304,0-.0816-.0265-.0804-.0578,0-.0935.7762.121,1.6831-.1272,2.4304.0935Z" style="fill:#cf9e2a;"/><path d="M8.8786,71.9962c-.0028.1348.0802.5418-.0925.5606l-.042-1.6359.1345-1.9169c.0012.9947.0204,1.9981,0,2.9923Z" style="fill:#cf9e2a;"/><path d="M37.4826,78.729c.0385.7982-.2008,1.6971-.0935,2.5248l-.0925.4671c-.0216-1.0948-.0021-2.1832.0935-3.2719.1571-.0248.0875.176.0925.2801Z" style="fill:#cf9e2a;"/><path d="M23.0871,70.8741c.0836-.2101.398.0196.4733-.0406.0848-.0679.0332-.2682.1801-.2394l.0603.2862c.4944.0438,1.0689.2852,1.5297.3678v.0935c-.7459-.1308-1.5015-.3094-2.2435-.4676Z" style="fill:#cf9e2a;"/><path d="M35.1457,67.3208c-.0413-.7464-.11-1.4952-.0935-2.2442.003-.135-.0804-.5415.0925-.5606-.0387.8232.1167,1.6297.1258,2.4504.0017.1543.0588.2524-.1249.3544Z" style="fill:#cf9e2a;"/><path d="M5.1395,64.0479c.3072-.0372.1502.0899.1249.2645-.1055.729-.2918,1.4497-.4054,2.1668-.0265.0817-.0578.0805-.0935,0,.1223-.7991.2281-1.639.3739-2.4312Z" style="fill:#cf9e2a;"/><path d="M34.6783,58.9984c-.1242-.6561-.2136-1.4621-.187-2.1507.0043-.1103-.0717-.3925.0925-.3736l.0934.9824.001,1.5419Z" style="fill:#cf9e2a;"/><path d="M57.3933,15.7035l.0005.4671c.4751-.0678.9466-.1249,1.4172-.2192.1364-.0273.3609-.1461.4518.0327-.3065.1413-1.6108.3699-1.9054.2861-.1748-.0497-.1132-.4146.0359-.5666Z" style="fill:#cf9e2a;"/><path d="M2.2417,3.3601c.411.2359,1.3235.6115,1.7766.4682l-.0948.1855c.201-.0704.4697.1735.5616.1878v.0935c-.6553-.1216-1.6519-.5221-2.2435-.8416v-.0935Z" style="fill:#cf9e2a;"/><path d="M.6526,1.8639C.3233,1.2606.1303.7177,0,.0386.2133-.0929.4059.425.5591.5548c-.2343-.0292-.3059-.2409-.2705.1307.0324.3404.4265.8051.4575,1.1784h-.0935Z" style="fill:#cf9e2a;"/><path d="M19.6285,22.7166c-.3952-.0197-1.149.1879-1.4897.4267l-.6602.5084c.3441-.5773,1.1655-1.0211,1.8327-1.0332.2088-.0038.3007.097.3173.0981Z" style="fill:#cf9e2a;"/><path d="M42.7174,51.2371c.0033.1553-.0011.3121-.001.4671-.4921-.3875-.0918-.3883-.0879-.4254.0148-.1433-.1851-1.1893-.2114-1.4809-.0139-.1548-.1153-.2695.1133-.3376.0726.5744.1747,1.2015.187,1.7767Z" style="fill:#cf9e2a;"/><path d="M53.8412,11.2151v.0935c-.4509.0018-.9073,0-1.3554,0h-1.6359c-.0372,0-.0468.7099-.0935-.0935,1.0269-.0034,2.0579.0046,3.0848,0Z" style="fill:#cf9e2a;"/><path d="M28.5088,26.8311c.0746.0045.1123.0106.0935.0935-.8638.1197-1.4637.0691-2.3369-.0935.1102-.1337.2153-.139.3776-.1238.7158.067,1.0831.2188,1.8658.1238Z" style="fill:#cf9e2a;"/><path d="M59.0759,18.1348c.3048.1819.1268.6029-.1394.6566-.4185.0843-1.1516-.0178-1.076-.5625.058-.0154.1457.0158.1871-.0005l.2322.0939-.2327.2797c.3043-.0325.6854.0475.9747.0021.1175-.0184.0284-.3571.054-.4692Z" style="fill:#cf9e2a;"/><path d="M19.6284,73.5859c.1697.0888.0878.3301.0524.4717-.1487.5942-.3426,1.1096-.5455,1.701-.0214.0623-.0705.3998-.1613.1651.2878-.7444.4098-1.5795.6543-2.3377Z" style="fill:#cf9e2a;"/><path d="M8.7851,45.0654c-.2548.6023-.5133,1.6905-.5609,2.3377-.0265.0817-.0578.0805-.0935,0,.0288-.4145.135-.9132.2137-1.3289.0303-.1603.1696-.3822.1672-.4902-.0016-.0717-.2952.005-.1931-.238l.2789.0941.1876-.3748Z" style="fill:#cf9e2a;"/><path d="M31.1262,23.6518c.027.7382-.1898,1.6088-.5609,2.2442l.3481-1.2882.1202-1.2361c.1563-.025.0888.1768.0925.2801Z" style="fill:#cf9e2a;"/><path d="M11.8698,38.0522c-.6688.3937-1.3039.8906-1.963,1.3091.4805-.604,1.2447-1.048,1.963-1.3091Z" style="fill:#cf9e2a;"/><path d="M45.1478,102.8545c-.8793.025-1.7466.0079-2.6174-.0935.4344-.2532,1.004-.0161,1.4459.0056.3865.019.8304-.1539,1.1715.0879Z" style="fill:#cf9e2a;"/><path d="M24.3958,10.4669c.1792.0822.0412.2995.0024.4224-.261.8256-.3177,1.0898-.8437,1.7283.2982-.7128.5981-1.4149.8413-2.1507Z" style="fill:#cf9e2a;"/><path d="M7.5699.9289c.2203.1051-.3666.2018-.3972.2106-.4687.1355-.9959.3137-1.468.4031-.1432.0271-.3812.1209-.4718-.0527.781-.1507,1.5717-.3486,2.3369-.5611Z" style="fill:#cf9e2a;"/><path d="M45.1478,68.817c.089.5923.1325,1.1938.2796,1.7766-.2284-.064-.4227-.4662-.56-.561.1495-.0228.2674.2314.2832-.0478.024-.4241-.3116-.8309-.0028-1.1678Z" style="fill:#cf9e2a;"/><path d="M35.2392,98.366h-.0935c.0373-.2899.1586-.5914.1854-.8899.036-.4012-.0067-.8503.0015-1.2608.0031-.1534-.0946-.5414.1354-.1046-.0208.6116.0158,1.2001-.0657,1.8125-.0233.1747-.1538.3693-.1632.4429Z" style="fill:#cf9e2a;"/><path d="M11.4025,3.9212c-.7771.3296-1.6295.4915-2.4304.7481.8954-.3747,1.4442-.5734,2.4304-.7481Z" style="fill:#cf9e2a;"/><path d="M36.0805,70.3131c.5751-.4294,1.4222-.3103,2.1021-.4688l-.1391.1883c-.6756.048-1.3021.1785-1.963.2805Z" style="fill:#cf9e2a;"/><path d="M23.648,50.489c.175.0908.0761.3278.0518.471-.0933.5496-.2153,1.0992-.3196,1.6471l-.1061-.0609c.1363-.6774.2165-1.3859.3739-2.0572Z" style="fill:#cf9e2a;"/><path d="M49.0738,19.2569c-.2287.3062-.5819.9667-.8878,1.0215l-.5143.3812c.461-.4706.8719-1.0009,1.4022-1.4026Z" style="fill:#cf9e2a;"/><path d="M15.6089,59.7465l.0895-.0414c-.1214.2633.174.3437.1751.3654.0135.2792-.1317.4466.2508.7042.4306-.0621.0838-.6065.3259-.8412-.0073.345.1441.9889-.3237.9388-.4514-.0483-.4468-.798-.5176-1.1258Z" style="fill:#cf9e2a;"/><path d="M19.1611,90.8852c-.156-.193.0523-.6472.1209-.8609.1322-.4119.2506-.86.5335-1.1964-.2368.6747-.4179,1.382-.6543,2.0572Z" style="fill:#cf9e2a;"/><path d="M59.4498,9.9994l.3489-.7263c.2035-.4355-.0517-.9677.2119-1.3309.0718.6587.0159,1.6219-.5609,2.0572Z" style="fill:#cf9e2a;"/><path d="M26.0784,44.2239c.0312.3105-.0662.1332-.2429.1033-.4896-.0827-1.19-.0454-1.5332-.3839.5833.1084,1.1894.1834,1.7761.2805Z" style="fill:#cf9e2a;"/><path d="M59.2629,22.4362c-.0604.2345-.211-.1724-.2204-.1992-.1403-.3993-.4362-1.094-.247-1.484.1355.5619.2746,1.1384.4674,1.6832Z" style="fill:#cf9e2a;"/><path d="M22.4328,80.4121c-.0229.6435-.2117,1.2555-.3739,1.8702-.1676-.0775-.0405-.3084-.016-.4353.0984-.5102.2374-1.0134.2983-1.5297.0441.0089.085.0957.0916.0948Z" style="fill:#cf9e2a;"/><path d="M11.9633,59.8399c.2801.2613.3465.6954.5598.9829.1783.2403.1643.1197.2815-.0478.0427.1793.0743.3768.0925.561-.517-.3092-.7346-.8667-.9338-1.4026v-.0935Z" style="fill:#cf9e2a;"/><path d="M33.9305,51.5177c-.195-.5718-.1835-1.1886-.2804-1.7767l.0933-.2329c.0077.6108.238,1.2796.2668,1.8735.0035.0731-.08.1245-.0797.1361Z" style="fill:#cf9e2a;"/><path d="M42.3434,69.378l-.1387-.1886c.2852.0789,1.8955.2479,2.0081.3768.0549.0628-.0943.0859-.0932.0924-.5815-.1613-1.1838-.1896-1.7761-.2805Z" style="fill:#cf9e2a;"/><path d="M27.1066,20.8465c.1051.0625.2467.0749.3213.1904.1717.2659.0724,1.3875.0526,1.7733-.2605-.4164.0354-1.2184-.1055-1.6244-.0534-.1538-.7658-.3126-.2684-.3393Z" style="fill:#cf9e2a;"/><path d="M8.8786,8.3161c-.7773.0638-1.6749-.0017-2.4304-.187-.0816-.0265-.0804-.0578,0-.0935l2.4304.2805Z" style="fill:#cf9e2a;"/><path d="M14.8611,40.39c-.5765.2452-1.1658.6239-1.7761.7481h-.0935c.4908-.2462.9849-.4871,1.4887-.7081.0968-.0425.3299-.2203.3808-.04Z" style="fill:#cf9e2a;"/><path d="M3.6438,5.3238v.0935c-.3866-.0798-.7477-.1457-1.1212-.2801l.093.4671c-.1433-.2451-.3419-.4176-.2795-.7481.4074.2504.8444.368,1.3077.4675Z" style="fill:#cf9e2a;"/><path d="M44.9608,100.8908c.4791-.0037,1.3269.2646,1.7761.4676-.081.1764-.3018.0447-.4242.0042-.5124-.1692-1.0253-.3125-1.5389-.4718.04-.0567.1023-.0567.187,0Z" style="fill:#cf9e2a;"/><path d="M28.5088,9.4383c-.0794.2209-.2534-.0221-.3287-.0921-.2858-.2658-.5054-.5177-.8214-.7677-.0462-.0366-.3581-.203-.1586-.2623.4847.3708.8538.7698,1.3087,1.1221Z" style="fill:#cf9e2a;"/><path d="M37.4826,81.8148c.0106.6665.0379,1.493.0935,2.1507h-.0935c-.0531-.6243-.0808-1.2825-.1004-1.9108-.005-.1602-.2322-.272.1004-.2399Z" style="fill:#cf9e2a;"/><path d="M12.3372,53.7618c-.1177.0576-.5995.4379-.6539.3736-.0324-.2898-.0422-.6557-.0939-.9346l.0979-.0526c.0201.1409.0916.6941.2287.7051l.4212-.0914Z" style="fill:#cf9e2a;"/><path d="M42.1565,26.6441c.3275-.031.112.074.1005.24-.0412.5954-.1166,1.1757-.1973,1.7685l-.0902-.0448c.1096-.6394.1321-1.3162.187-1.9637Z" style="fill:#cf9e2a;"/><path d="M40.6608,98.366c-.1986.1739-.4616-.1424-.7068-.1813-.4426-.0701-1.0686.1181-1.4432-.0993.5089.052,1.1413-.0748,1.6307.0047.2398.039.3359.1805.5193.2758Z" style="fill:#cf9e2a;"/><path d="M25.9849,12.4306c.0243-.0138.0864-.1357.2103-.2065.134-.0766.8807-.3188.9104-.3577.0141-.0185-.2167-.3486.0482-.4639l.2332.3736c-.424.1802-.8891.5843-1.4022.6546Z" style="fill:#cf9e2a;"/><path d="M6.4482,8.0356v.0935c-.5344-.1311-1.1926-.4008-1.6826-.6546.0646-.1697.2906-.0153.3922.0281.4287.1831.8572.3632,1.2904.5329Z" style="fill:#cf9e2a;"/><path d="M34.9587,94.7191c-.1535-.5905-.3961-1.1667-.4674-1.7767.1631.4423.3697.8619.4962,1.3281.037.1365.1504.3566-.0288.4486Z" style="fill:#cf9e2a;"/><path d="M37.7631,74.334c-.1548-.0971-.0934-.3549-.0951-.513-.0061-.5799-.0707-1.2805.0951-1.8248.0361.7711.0093,1.5683,0,2.3377Z" style="fill:#cf9e2a;"/><path d="M33.1827,58.1568c-.0023.4042-.0001.8114,0,1.2156-.2825.0522-.1806-.143-.187-.3229-.0066-.1875-.0076-.3824,0-.5698.0073-.1799-.0963-.375.187-.3229Z" style="fill:#cf9e2a;"/><path d="M43.5587,29.917h.187c-.5505.3078-1.2408.4849-1.8695.5611-.0018-.0151-.0819-.0496-.0947-.0917.6178-.0522,1.196-.2823,1.7773-.4694Z" style="fill:#cf9e2a;"/><path d="M15.3285,58.0633c-.0025-.0998-.2038-.2694.1869-.2796-.246.4916.3157,1.1573,0,1.6823-.0789-.3879-.1771-1.011-.187-1.4026Z" style="fill:#cf9e2a;"/><path d="M20.0024,52.7332l.0275.4472-.4014,1.2359c.1362-.5454.2213-1.1186.3739-1.6832Z" style="fill:#cf9e2a;"/><path d="M26.2654,23.2777c-.5909-.119-1.1929-.2231-1.7761-.374.0909-.1725.328-.0851.4712-.0518.3998.0928.9568.2198,1.3049.4259Z" style="fill:#cf9e2a;"/><path d="M35.8,25.896c-.341.3377-.6501.8577-1.1217,1.0286.2321-.2103.5761-.5913.8008-.8353.1717-.1864.0829-.603.3209-.1933Z" style="fill:#cf9e2a;"/><path d="M41.5956,43.2888l-.1513.0482c.016-.5293-.0694-1.0955-.1292-1.6379.0835.5095.1936,1.0643.2804,1.5897Z" style="fill:#cf9e2a;"/><path d="M8.7851,67.2272c-.0035.2484.0035.4993-.0009.7476-.1434.0026-.1319-.409-.1335-.5139-.0078-.5211.0119-1.2243.1344-1.7299-.0012.4974.007.9988,0,1.4962Z" style="fill:#cf9e2a;"/><path d="M4.859,66.4791c-.078.4927-.0427,1.1582-.1889,1.6844-.0414-.0133-.0763-.0931-.0915-.0947.06-.5263.1069-1.0668.187-1.5897h.0935Z" style="fill:#cf9e2a;"/><path d="M24.3958,47.8708c.1363.3268-.1366.8761-.2353,1.2149-.0293.1005-.0087.3885-.1386.1877.1316-.4807.1729-.9108.3739-1.4026Z" style="fill:#cf9e2a;"/><path d="M39.2587,69.0975c.0215.2828-.0617.5725.0934.8407-.217-.0043-.4374.0095-.6543.0009-.1103-.0043-.3923.0718-.3734-.0926l.841-.0011c.0195-.2154-.0579-.4225-.0752-.6309-.0204-.2461-.0688-.2638.1685-.1169Z" style="fill:#cf9e2a;"/><path d="M58.4216,15.236c.3698-.0799.7422-.12,1.1222-.0939.0134.239.0173.4343-.0939.6549v-.5601c-.2126-.1136-.7995.2736-1.0283-.001Z" style="fill:#cf9e2a;"/><path d="M14.9546,43.7563c.0803.048.2594.0548.2832.1562.0198.4187-.0494.8341-.0962,1.2465-.2869-.2457.044-.9617-.0007-1.1533-.025-.1072-.4065-.1561-.1863-.2493Z" style="fill:#cf9e2a;"/><path d="M44.7739,66.5727l-.0923.0472c-.0342-.5015-.299-1.1408-.0947-1.6369.0713.5261.1134,1.064.187,1.5897Z" style="fill:#cf9e2a;"/><path d="M22.9002,20.1919c.4117-.2716.7449-.6239,1.1217-.9351-.2731.4144-.3526.542-.7896.8484-.1099.0771-.1824.2519-.3321.0867Z" style="fill:#cf9e2a;"/><path d="M8.972,4.6693c-.6112.2558-.804.3976-1.4956.5611.5295-.1999.9374-.3822,1.4956-.5611Z" style="fill:#cf9e2a;"/><path d="M3.083,1.5834c.5772.0434,1.194-.0315,1.7761,0-.0001.0052.06-.0195.093.0468.0433.0867-1.7322.0311-1.9175.047l.0484-.0937Z" style="fill:#cf9e2a;"/><path d="M8.3177,41.5121l-.3488,1.289-.1186-.0733c.1348-.624.2017-.7585.4674-1.3091v.0935Z" style="fill:#cf9e2a;"/><path d="M40.9413,25.9895c-.1412-.339.0924-.8356.1015-1.1595.0025-.0879-.4294-.0196-.008-.2431l.085.0518c.0915.4617-.1172.912-.1785,1.3508Z" style="fill:#cf9e2a;"/><path d="M36.7348,23.7453c.4363-.0255.883.1421,1.2148.4212.0032.0918-.1296.0295-.1865.0463-.3785-.3494-.9117-.4089-1.4017-.375l.3734-.0926Z" style="fill:#cf9e2a;"/><path d="M41.3152,60.9621c.0031-.1189-.0762-.4725.0925-.4671-.0193.5636.0038,1.1137.0555,1.6759.0224.2432.1087.2447-.148.1003-.0025-.4344-.0114-.8751,0-1.3091Z" style="fill:#cf9e2a;"/><path d="M44.9608,29.4494c-.3005.2545-.8235.4319-1.2152.4675-.0614.0056-.1252-.0037-.187,0,.4617-.1486.9555-.315,1.4022-.4675Z" style="fill:#cf9e2a;"/><path d="M37.1087,26.083c.2982-.3239.5657-.6823.9348-.9351-.2321.2943-.3547.4945-.6543.7947-.0432.0433-.2411.327-.2804.1404Z" style="fill:#cf9e2a;"/><path d="M10.4677,7.9421c-.4546.1677-.8364.2152-1.3087.2805l-.0471-.0925,1.3558-.188Z" style="fill:#cf9e2a;"/><path d="M8.6916,62.1777c-.0031.1188.0762.4724-.0925.4671-.0116-.6217.0125-1.2482-.0009-1.8697h.0935c-.0014.4659.0122.9371,0,1.4026Z" style="fill:#cf9e2a;"/><path d="M22.2458,26.7376c-.5611-.1882-.7556-.3367-1.2152-.5611.3163.1003,1.0513.3032,1.2152.5611Z" style="fill:#cf9e2a;"/><path d="M18.7872,8.0356c.3248-.3083.6382-.5272,1.0283-.7481l-.7005.655-.3278.0931Z" style="fill:#cf9e2a;"/><path d="M37.6696,58.5309l-.0925.0472c-.1169-.426-.1092-.9474-.1879-1.3563h.0935c.0798.4286.1114.8816.187,1.3091Z" style="fill:#cf9e2a;"/><path d="M12.6176,60.3075c-.3053.0473-.0776-.3351-.2373-.56-.0787-.1109-.2707-.0473-.2291-.1867.3626.0818.0527-.5011.2794-.5625-.0157.4364.0852.8842.187,1.3091Z" style="fill:#cf9e2a;"/><path d="M23.461,27.2051c-.2361-.0721-1.1728-.2325-1.2122-.2819-.0275-.0345.0166-.1547-.003-.1856.3582.1202.8952.1585,1.2152.4676Z" style="fill:#cf9e2a;"/><path d="M29.8175,26.6441c-.4165.1976-.7792.2201-1.2152.2805l-.0935-.0935c.4426-.0537.7184-.1889,1.1001-.2653.0769-.0154.2109-.0287.2086.0782Z" style="fill:#cf9e2a;"/><path d="M41.4087,64.422c-.0034-.4035-.0083-.8123,0-1.2156.0028-.1348-.0802-.5417.0925-.5606-.0541.567.1205,1.2427-.0925,1.7762Z" style="fill:#cf9e2a;"/><path d="M19.348,61.0556c-.0873.4751-.081,1.0419-.2804,1.4962.0202-.1829-.0317-.3916.0258-.5807l.2546-.9155Z" style="fill:#cf9e2a;"/><path d="M33.1827,59.9335c-.0014.2799.0032.5617,0,.8416-.3734.0739-.057-.5486-.2803-.8407l.2803-.0009Z" style="fill:#cf9e2a;"/><path d="M8.7851,3.7342c-.3153.0885-.6052.1951-.9348.2805l-.059-.1044c.2903-.0399.7062-.3857.9938-.1761Z" style="fill:#cf9e2a;"/><path d="M34.3044,55.258c-.0485-.4569-.0471-.9474-.0935-1.4026l.0926-.0473c-.0755.4729.2758,1.0149.0009,1.4499Z" style="fill:#cf9e2a;"/><path d="M16.7307,4.6693l-.9348-.9351c.5223.321.6092.4348.9348.9351Z" style="fill:#cf9e2a;"/><path d="M8.7851,65.6375c-.0957-.3702-.2867-1.0994,0-1.4026.0005.4665.0017.9362,0,1.4026Z" style="fill:#cf9e2a;"/><path d="M8.3177,41.5121v-.0935c.2457-.5094.3472-.6104.6543-1.0286l-.6543,1.1221Z" style="fill:#cf9e2a;"/><path d="M11.7764,55.632l.0942.3738.2788.0456c-.0647.1711-.2671.0319-.2788.0485-.0653.0922.3271.3572-.1877.2802.0263-.2244.0534-.5418.0935-.7481Z" style="fill:#cf9e2a;"/><path d="M12.9916,41.138h.0935c-.1946.2884-.6437.3893-.9348.5611l-.0935-.0917c.3025-.1752.6237-.3133.9348-.4694Z" style="fill:#cf9e2a;"/><path d="M22.6197,22.3426l.4535-.0342.6682.3147c-.3659-.1049-.7549-.1734-1.1217-.2805Z" style="fill:#cf9e2a;"/><path d="M42.25,24.5869c.213.4522.0382,1.0551.0937,1.5446l-.0937-.0484c.0332-.4935-.0239-1.0014,0-1.4962Z" style="fill:#cf9e2a;"/><path d="M8.3177,48.6188c-.0523-.0083-.1753.0161-.1868.0007-.0365-.0487-.0126-1.0375-.0002-1.2163h.0935c-.0279.3803.0821.8345.0935,1.2156Z" style="fill:#cf9e2a;"/><path d="M14.8611,47.5902c-.021-.632-.0161-.7665.0935-1.4026-.0023.4771-.002.9323-.0935,1.4026Z" style="fill:#cf9e2a;"/><path d="M36.6413,72.0898c.2771-.1063.7306-.2895.9919-.365.1917-.0554.1162.0602.1298.178-.383-.0366-.7972.3978-1.1217.187Z" style="fill:#cf9e2a;"/><path d="M30.1914,19.9114c.026-.2154.1904-.3881.1963-.6108.0077-.2905-.1349-.2941-.1028-.6048.3011.3754.2915.9065-.0935,1.2156Z" style="fill:#cf9e2a;"/><path d="M27.4806,44.4109c-.2305.334-.8874-.0555-1.2152-.001-.0162-.1061.0933-.086.0934-.0926.3733.0147.7503.0563,1.1217.0935Z" style="fill:#cf9e2a;"/><path d="M41.7826,44.6915l-.091.0457c.0699-.3769-.2652-.8341-.0025-1.1678.0551.3526.0424.789.0935,1.1221Z" style="fill:#cf9e2a;"/><path d="M44.9608,100.8908c-.0623.0005-.1246-.0003-.187,0-.1917-.0595-1.0037-.2209-.7478-.374.2992.135.7077.1495.9348.374Z" style="fill:#cf9e2a;"/><path d="M19.2545,55.7255c.2145.3268-.1266.7295-.0955,1.0754l-.0914-.0468c.0764-.3344.1067-.689.187-1.0286Z" style="fill:#cf9e2a;"/><path d="M56.2716,17.7607c-.0059-.0038-.0856.1273-.139.0095-.1246-.2746-.1997-.8659.139-1.0381-.0696.3448-.1966.689,0,1.0286Z" style="fill:#cf9e2a;"/><path d="M18.8806,91.5397c.0037.2898-.0967.5736-.187.8416-.3118.0278-.1401-.0593-.0898-.2296.069-.2335.1758-.4581.1852-.7067.0399.0144.0765.0933.0916.0947Z" style="fill:#cf9e2a;"/><path d="M15.1415,45.2525c-.0455.3227-.1335.6244-.187.9351.0015-.3148.0508-.6444-.0934-.9342l.2803-.0009Z" style="fill:#cf9e2a;"/><path d="M34.8653,63.0193c-.0041-.2791-.0061-.5625,0-.8416.003-.135-.0804-.5415.0925-.5606-.0515.4406.1187,1-.0925,1.4022Z" style="fill:#cf9e2a;"/><path d="M23.2741,38.1457c-.1773.2666.0055.6253.0935.9351-.1389-.1078-.3938-.6736-.3679-.7889.0319-.1416.2435-.1184.2744-.1462Z" style="fill:#cf9e2a;"/><path d="M38.2304,32.8157c-.0561.0691-.0707.3554-.2795.374-.0013-.283.0569-.5623.0925-.8416h.0935c-.0285.1125-.0305.4146.0935.4675Z" style="fill:#cf9e2a;"/><path d="M34.9587,64.422c-.0032-.2787-.0101-.5633,0-.8416.004-.1099-.0715-.3926.0925-.3736-.1228.3435.2415.9997-.0925,1.2152Z" style="fill:#cf9e2a;"/><path d="M44.9608,23.4648l.7478-.7481c-.3442.3942-.26.3897-.7478.7481Z" style="fill:#cf9e2a;"/></g></g></svg>