<?xml version="1.0" encoding="UTF-8"?><svg id="Layer_2" xmlns="http://www.w3.org/2000/svg" viewBox="0 0 353.6081 110.9136"><g id="Components"><g id="_194681ad-533c-4554-bf12-694bdeae80b8_1"><path d="M87.6609,50.6147l14.1504-12.749c3.2812-2.9395,4.9219-5.0352,4.9219-6.2891,0-1.8906-1.6406-2.8818-4.9219-2.9736v-1.5723h17.4658v1.5723c-1.4355.0234-2.877.3311-4.3237.9229-1.4473.5928-2.7744,1.3672-3.9819,2.3242-1.208.957-3.4521,2.9736-6.7334,6.0498l-8.4424,7.793,17.3633,17.5342c3.9648,4.0332,6.6191,6.4717,7.9639,7.3145,1.3447.8438,3.0879,1.2646,5.2295,1.2646v1.5723h-24.0625v-1.5723h.9229c2.5977,0,4.2153-.2158,4.8535-.6494.6377-.4326.957-.9678.957-1.6064,0-.957-1.6523-3.0869-4.9561-6.3916l-13.0908-13.1934-3.3154,2.9053v8.4424c0,3.6465.0908,6.0322.2734,7.1611.1821,1.127.6436,1.9648,1.3843,2.5117.7402.5469,2.1587.8203,4.2554.8203h.8887v1.5723h-20.8154v-1.5723h1.4355c1.9824,0,3.355-.25,4.1187-.752.7632-.501,1.2529-1.2813,1.4697-2.3418.2163-1.0586.3247-3.5254.3247-7.3994v-22.7295c0-3.8281-.1196-6.2656-.3589-7.3145-.2393-1.0479-.7124-1.7539-1.4185-2.1191-.7065-.3643-2.3584-.5469-4.9561-.5469v-1.5723h20.5078v1.5723h-.8545c-2.2788,0-3.7715.1875-4.4775.5645-.7065.375-1.1792,1.0762-1.4185,2.1016s-.3589,3.4639-.3589,7.3145v12.0312Z" style="fill:#003142;"/><path d="M175.4089,58.9546h1.6406l-.9912,14.4238h-38.3838v-1.5723h.957c2.3008,0,3.7881-.3076,4.46-.9229s1.0996-1.3955,1.2822-2.3408c.1816-.9453.2734-3.3555.2734-7.2295v-22.7295c0-3.5312-.0977-5.8555-.291-6.9727-.1934-1.1162-.6377-1.8965-1.333-2.3418-.6953-.4434-2.1592-.666-4.3916-.666v-1.5723h33.1201l1.0938,11.5527h-1.6064c-.7295-3.2354-1.624-5.5313-2.6836-6.8867-1.0596-1.3555-2.3184-2.21-3.7764-2.5645-1.459-.3525-3.8057-.5293-7.041-.5293h-6.4258v19.4482h4.9219c2.2559,0,3.833-.1934,4.7334-.5811.9004-.3867,1.4922-.9746,1.7773-1.7598.2852-.7871.4277-2.3184.4277-4.5977h1.6064v15.8594h-1.6064c0-2.5742-.2168-4.3008-.6494-5.1777-.4336-.877-1.0654-1.4473-1.8975-1.709-.832-.2617-2.2383-.3936-4.2207-.3936h-5.0928v10.9717c0,5.4922.3525,8.7217,1.0596,9.6895.7061.9697,2.6084,1.4531,5.708,1.4531h3.4521c2.4375,0,4.4434-.3125,6.0156-.9395,1.5723-.627,3.0703-1.9141,4.4941-3.8633,1.4238-1.9473,2.5469-4.6309,3.3672-8.0488Z" style="fill:#003142;"/><path d="M239.196,73.3784h-12.4756c-2.21-1.5488-5.5937-5.6055-10.1514-12.168-1.458-2.0957-2.9736-4.1064-4.5459-6.0332-1.5723-1.9248-2.6543-3.0977-3.2471-3.5195s-1.5156-.6328-2.7686-.6328h-1.8457v10.2881c0,3.6465.0859,6.0322.2568,7.1611.1709,1.127.626,1.9648,1.3672,2.5117.7402.5469,2.1582.8203,4.2549.8203h2.2217v1.5723h-22.1826v-1.5723h1.5039c1.9824,0,3.3555-.25,4.1191-.752.7627-.501,1.2471-1.2813,1.4521-2.3418.2051-1.0586.3076-3.5254.3076-7.3994v-22.7295c0-3.6914-.1025-6.0723-.3076-7.1436-.2051-1.0703-.6611-1.8115-1.3672-2.2217s-2.2334-.6152-4.5801-.6152h-.7861v-1.5723l6.6309-.3418c4.4209-.2051,7.9297-.3076,10.5273-.3076,4.4209,0,8.0156.4102,10.7842,1.2305s5.0068,2.165,6.7158,4.0332c1.709,1.8691,2.5635,4.1016,2.5635,6.6992,0,3.0313-1.1162,5.6172-3.3496,7.7588-2.2334,2.1426-5.5146,3.4756-9.8438,3.999,1.9365.9346,5.0586,4.3066,9.3652,10.1172,3.5088,4.7168,6.2666,7.8047,8.2715,9.2627,2.0049,1.459,4.375,2.2334,7.1094,2.3242v1.5723ZM204.1619,49.4526c1.709-.0449,3.4746-.1133,5.2979-.2051,1.8232-.0908,3.4063-.3418,4.751-.752s2.4326-1.0078,3.2646-1.7949c.8311-.7852,1.4863-1.8164,1.9648-3.0928.4785-1.2754.7178-2.8477.7178-4.7168,0-3.2578-.8145-5.8672-2.4434-7.8271-1.6299-1.959-5.1787-2.9395-10.6475-2.9395-.8428,0-1.8115.0459-2.9053.1367v21.1914Z" style="fill:#003142;"/><path d="M265.6931,53.1099l9.126-15.3467c1.5039-2.5059,2.2559-4.2832,2.2559-5.332,0-.957-.3984-1.834-1.1963-2.6318-.7979-.7969-2.2217-1.1963-4.2725-1.1963v-1.5723h15.1416v1.5723c-2.0967.2969-3.7881,1.0762-5.0752,2.3418-1.2881,1.2637-2.9346,3.5605-4.9395,6.8867l-10.3906,17.3291v6.1523c0,3.9424.1201,6.4551.3594,7.5361.2393,1.083.752,1.8457,1.5381,2.291.7861.4434,2.3291.666,4.6309.666v1.5723h-19.7559v-1.5723h.752c1.9824,0,3.3555-.25,4.1191-.752.7627-.501,1.2471-1.2813,1.4521-2.3418.2051-1.0586.3076-3.5254.3076-7.3994v-5.708l-11.5527-18.9697c-2.3467-3.8281-3.9082-6.1123-4.6826-6.8525-.7744-.7402-2.165-1.1338-4.1699-1.1797v-1.5723h18.7988v1.5723c-3.5088,0-5.2637.7979-5.2637,2.3926,0,.6387.5811,1.9141,1.7432,3.8281l11.0742,18.2861Z" style="fill:#003142;"/><path d="M324.8669,47.6753l11.9971,14.5947c4.2832,5.1953,7.0068,8.083,8.1689,8.665,1.1621.5801,2.6768.8711,4.5459.8711v1.5723h-22.9688v-1.5723c2.3008,0,3.9141-.21,4.8359-.6328.9238-.4209,1.3848-1.1211,1.3848-2.1016,0-.5918-.2109-1.2354-.6328-1.9316-.4219-.6943-1.5098-2.1123-3.2637-4.2549l-8.2715-10.1855-7.2803,8.8184c-1.709,2.0742-2.8262,3.5322-3.3496,4.375-.5244.8438-.7861,1.6406-.7861,2.3926,0,2.3242,1.7773,3.498,5.332,3.5205v1.5723h-17.9443v-1.5723c1.9365-.1133,3.6855-.541,5.2461-1.2813,1.5605-.7402,3.002-1.7715,4.3242-3.0937,1.3213-1.3213,3.2012-3.5312,5.6396-6.6309l7.7588-9.3311-12.2021-14.6631-3.9307-4.7168c-.7754-1.002-1.6807-1.834-2.7178-2.4951-1.0371-.6602-2.4092-.9912-4.1182-.9912v-1.5723h19.7559v1.5723h-.6494c-2.5977,0-3.8965.707-3.8965,2.1191,0,.5703.1992,1.1738.5977,1.8115.3984.6387,1.3271,1.8232,2.7861,3.5547l8.5107,10.3223,7.6904-9.6387c1.6406-2.0273,2.6367-3.3203,2.9912-3.8799.3525-.5576.5293-1.1211.5293-1.6914,0-.957-.4561-1.6289-1.3672-2.0166-.9121-.3867-2.4609-.5811-4.6484-.5811v-1.5723h17.3975v1.5723c-2.9629,0-5.4521.8711-7.4678,2.6152-2.0176,1.7422-4.2451,4.1523-6.6826,7.2285l-7.3145,9.2285Z" style="fill:#003142;"/><path d="M93.3909,104.4692h-4.667c-.8267-.5791-2.0923-2.0967-3.7974-4.5518-.5454-.7842-1.1123-1.5361-1.7002-2.2568-.5884-.7197-.9932-1.1592-1.2148-1.3164-.2217-.1582-.5669-.2373-1.0356-.2373h-.6904v3.8486c0,1.3643.0317,2.2568.0957,2.6787s.2344.7354.5117.9404c.2769.2041.8076.3066,1.5918.3066h.8311v.5879h-8.2979v-.5879h.5625c.7417,0,1.2549-.0937,1.5405-.2813s.4668-.4795.5435-.876.1152-1.3193.1152-2.7686v-8.502c0-1.3809-.0386-2.2715-.1152-2.6729-.0767-.4004-.2476-.6777-.5112-.8311-.2646-.1533-.8354-.2305-1.7134-.2305h-.2944v-.5879l2.4805-.1279c1.6538-.0762,2.9663-.1152,3.9385-.1152,1.6533,0,2.998.1543,4.0337.4609s1.873.8096,2.5122,1.5088c.6396.6982.959,1.5342.959,2.5059,0,1.1338-.4175,2.1016-1.2529,2.9023-.8354.8008-2.063,1.2998-3.6821,1.4961.7241.3496,1.8921,1.6104,3.5034,3.7842,1.3125,1.7646,2.3438,2.9199,3.0938,3.4648.75.5459,1.6367.8359,2.6597.8701v.5879ZM80.2854,95.519c.6392-.0166,1.2998-.043,1.9819-.0771.6816-.0332,1.2739-.127,1.7769-.2812.5029-.1533.9102-.377,1.2212-.6709s.5562-.6797.7354-1.1572c.1787-.4775.2686-1.0654.2686-1.7646,0-1.2188-.3052-2.1943-.9146-2.9277-.6094-.7324-1.937-1.0996-3.9824-1.0996-.3154,0-.6777.0176-1.0869.0518v7.9268Z" style="fill:#003142;"/><path d="M102.699,97.5395h-7.3008c-.0342.5029-.0513.8779-.0513,1.125,0,1.8408.2876,3.2246.8633,4.1484.5752.9258,1.4336,1.3877,2.5762,1.3877,1.5513,0,2.6509-.6943,3.2988-2.084h.6138c-.2729.8691-.8145,1.5488-1.624,2.0391-.8101.4902-1.6919.7354-2.6465.7354-.8867,0-1.7241-.2236-2.5127-.6709-.7886-.4482-1.4341-1.0811-1.937-1.8994s-.7544-1.8105-.7544-2.9785c0-1.6533.4858-3.0283,1.4575-4.124.9717-1.0947,2.1865-1.6426,3.644-1.6426,1.3726,0,2.4336.418,3.1836,1.2529.75.8359,1.1465,1.7393,1.1895,2.7109ZM100.4612,97.0278c.0259-.1963.0386-.3711.0386-.5244,0-.75-.2197-1.332-.6587-1.7451-.439-.4131-.978-.6201-1.6172-.6201-1.5518,0-2.4766.9629-2.7744,2.8896h5.0117Z" style="fill:#003142;"/><path d="M104.7571,104.8013v-3.4395h.499c.5796,1.9863,1.6152,2.9795,3.1069,2.9795.6475,0,1.1313-.1963,1.4512-.5879.3193-.3926.4795-.8223.4795-1.292,0-.5449-.1709-.9922-.5117-1.3418-.3496-.3496-1.0273-.7715-2.0327-1.2666-1.0571-.5195-1.8159-1.0312-2.2759-1.5342-.4604-.4941-.6904-1.1035-.6904-1.8281,0-.6904.2471-1.3486.7417-1.9756.4941-.626,1.189-.9395,2.084-.9395.9116,0,1.666.3711,2.2632,1.1123.1274-.1279.2939-.4385.4985-.9336h.4731v3.2354h-.4731c-.1709-.7754-.501-1.4434-.9912-2.001-.4902-.5586-1.0674-.8379-1.7324-.8379-.5112,0-.9248.1582-1.2402.4736s-.4731.6816-.4731,1.0996c0,.46.1748.8564.5244,1.1885.3408.3408.9927.7285,1.9561,1.1641,1.4492.6562,2.3354,1.2949,2.6597,1.918.3237.6309.4858,1.2354.4858,1.8154,0,.9121-.3003,1.6533-.9014,2.2246-.6011.5713-1.3574.8564-2.2695.8564-.9634,0-1.8198-.3965-2.5698-1.1895-.2305.2559-.418.623-.5625,1.0996h-.499Z" style="fill:#003142;"/><path d="M115.6638,93.5757h.3452c.145.4775.2173,1.0527.2173,1.7256.5454-.5791,1.1313-1.0117,1.7583-1.2969.6265-.2861,1.2891-.4287,1.9878-.4287,1.4492,0,2.6553.5098,3.6191,1.5283.9629,1.0186,1.4443,2.3633,1.4443,4.0332,0,1.6367-.4834,3.0049-1.4512,4.1045s-2.2393,1.6494-3.8164,1.6494c-.6479,0-1.2681-.1299-1.8608-.3896-.5923-.2598-1.1528-.6455-1.6812-1.1572v3.9766c0,1.21.0234,1.9473.0703,2.2119.0469.2637.1812.4619.4028.5947.2217.1318.6348.1982,1.2402.1982v.5879h-5.4722v-.5879h.3833c.605,0,.9995-.0879,1.1826-.2627s.29-.3838.3198-.626c.0298-.2432.0449-.9492.0449-2.1162v-9.5127c0-1.1172-.0151-1.8203-.0449-2.1104-.0298-.2891-.1514-.5107-.3643-.6641-.2134-.1543-.5928-.2305-1.1382-.2305h-.3833v-.5879c.8438-.0859,1.9092-.2988,3.1963-.6396ZM116.2263,102.5005c.4604.5625.9482.9863,1.4639,1.2715.5156.2861,1.0591.4287,1.6304.4287.9634,0,1.8032-.4131,2.519-1.2402.7158-.8262,1.0742-2.1436,1.0742-3.9512,0-1.5684-.3457-2.7402-1.0361-3.5156-.6904-.7754-1.5127-1.1641-2.4678-1.1641-.5879,0-1.1465.1494-1.6748.4482-.5288.2979-1.0317.75-1.5088,1.3545v6.3682Z" style="fill:#003142;"/><path d="M127.0437,99.2143c0-1.6025.5371-2.9434,1.6104-4.0215,1.0742-1.0781,2.3955-1.6172,3.9639-1.6172,1.5771,0,2.9023.541,3.9766,1.624,1.0742,1.082,1.6113,2.4209,1.6113,4.0146,0,1.7646-.5459,3.1514-1.6367,4.1621-1.0918,1.0098-2.4082,1.5146-3.9512,1.5146s-2.8574-.5137-3.9443-1.541c-1.0869-1.0264-1.6299-2.4053-1.6299-4.1357ZM129.1658,99.2778c0,1.8584.3027,3.1602.9082,3.9062.6045.7461,1.4531,1.1191,2.5439,1.1191,1.1172,0,1.9717-.373,2.5635-1.1191.5928-.7461.8887-2.0479.8887-3.9062,0-1.8408-.2939-3.1533-.8818-3.9375-.5879-.7842-1.4453-1.1768-2.5703-1.1768-1.1162,0-1.9707.3906-2.5635,1.1699-.5928.7803-.8887,2.0947-.8887,3.9443Z" style="fill:#003142;"/><path d="M142.7693,93.5757h.3457c.1963.5283.3066,1.249.332,2.1611.6143-.7246,1.2578-1.2666,1.9307-1.624.6738-.3584,1.377-.5371,2.1104-.5371.835,0,1.5186.1748,2.0518.5244.5322.3496.876.7773,1.0293,1.2852.1533.5068.2305,1.2461.2305,2.2178v3.2734c0,1.21.0205,1.9482.0635,2.2119.043.2646.1768.4629.4023.5947.2266.1318.6416.1982,1.2471.1982v.5879h-5.3574v-.5879h.2432c.6133,0,1.0146-.0898,1.2021-.2686.1875-.1797.2939-.3877.3193-.627.0254-.2383.0381-.9414.0381-2.1094v-3.376c0-.8262-.04-1.417-.1211-1.7705s-.2988-.667-.6523-.9395-.8037-.4092-1.3486-.4092c-.6221,0-1.2168.1855-1.7842.5557-.5664.3711-1.1016.9277-1.6045,1.6689v4.2705c0,1.21.0234,1.9482.0703,2.2119.0469.2646.1836.4629.4092.5947s.6455.1982,1.2598.1982v.5879h-5.293v-.5879c.5879,0,.9971-.0596,1.2266-.1797.2305-.1191.373-.2998.4287-.543s.083-1.0039.083-2.2822v-3.1201c0-1.2187-.0234-1.958-.0703-2.2178s-.1836-.4561-.4092-.5889c-.2256-.1318-.6455-.1982-1.2588-.1982v-.5879c.9375-.1025,1.8965-.2979,2.876-.5879Z" style="fill:#003142;"/><path d="M154.1365,104.8013v-3.4395h.499c.5791,1.9863,1.6152,2.9795,3.1064,2.9795.6475,0,1.1318-.1963,1.4512-.5879.3193-.3926.4795-.8223.4795-1.292,0-.5449-.1709-.9922-.5117-1.3418-.3496-.3496-1.0273-.7715-2.0322-1.2666-1.0576-.5195-1.8164-1.0312-2.2764-1.5342-.46-.4941-.6904-1.1035-.6904-1.8281,0-.6904.2471-1.3486.7422-1.9756.4941-.626,1.1885-.9395,2.084-.9395.9111,0,1.666.3711,2.2627,1.1123.1279-.1279.2939-.4385.499-.9336h.4727v3.2354h-.4727c-.1709-.7754-.501-1.4434-.9912-2.001-.4902-.5586-1.0674-.8379-1.7324-.8379-.5117,0-.9248.1582-1.2402.4736s-.4736.6816-.4736,1.0996c0,.46.1748.8564.5244,1.1885.3408.3408.9932.7285,1.9561,1.1641,1.4492.6562,2.3359,1.2949,2.6602,1.918.3232.6309.4854,1.2354.4854,1.8154,0,.9121-.2998,1.6533-.9014,2.2246-.6006.5713-1.3574.8564-2.2695.8564-.9629,0-1.8193-.3965-2.5693-1.1895-.2305.2559-.418.623-.5625,1.0996h-.499Z" style="fill:#003142;"/><path d="M172.2673,97.5395h-7.3008c-.0342.5029-.0518.8779-.0518,1.125,0,1.8408.2881,3.2246.8633,4.1484.5752.9258,1.4336,1.3877,2.5762,1.3877,1.5518,0,2.6514-.6943,3.2988-2.084h.6143c-.2734.8691-.8145,1.5488-1.624,2.0391-.8105.4902-1.6924.7354-2.6465.7354-.8867,0-1.7246-.2236-2.5127-.6709-.7891-.4482-1.4346-1.0811-1.9375-1.8994s-.7539-1.8105-.7539-2.9785c0-1.6533.4854-3.0283,1.457-4.124.9717-1.0947,2.1865-1.6426,3.6445-1.6426,1.3721,0,2.4336.418,3.1836,1.2529.75.8359,1.1465,1.7393,1.1895,2.7109ZM170.029,97.0278c.0264-.1963.0391-.3711.0391-.5244,0-.75-.2197-1.332-.6592-1.7451-.4385-.4131-.9775-.6201-1.6172-.6201-1.5518,0-2.4766.9629-2.7744,2.8896h5.0117Z" style="fill:#003142;"/><path d="M180.4236,87.272l2.8516-.1406c2.3779-.1191,3.9805-.1787,4.8076-.1787,2.5742,0,4.5811.3916,6.0215,1.1758,1.4404.7852,2.5127,1.8477,3.2158,3.1904s1.0547,2.8916,1.0547,4.6475c0,1.2705-.1914,2.4316-.5752,3.4844-.3838,1.0527-.9102,1.9268-1.5791,2.6211-.6689.6953-1.4443,1.2236-2.3271,1.5859-.8818.3623-1.7197.5879-2.5117.6777-.793.0889-1.9102.1338-3.3506.1338h-7.6836v-.5879h.7158c.7412,0,1.2549-.0937,1.54-.2813.2861-.1875.4688-.4795.5498-.876s.1221-1.3193.1221-2.7686v-8.3613c0-1.3809-.041-2.2744-.1221-2.6787-.0811-.4053-.251-.6826-.5107-.8311-.2607-.1494-.8291-.2246-1.707-.2246h-.5117v-.5879ZM185.7683,87.6304v11.584c0,1.7129.0322,2.8174.0957,3.3115.0645.4941.2559.8418.5752,1.042.3203.2002.9951.3008,2.0264.3008,1.5088,0,2.749-.207,3.7207-.6201.9717-.4141,1.7842-1.2275,2.4365-2.4424.6514-1.2148.9775-2.7637.9775-4.6475,0-1.4658-.1895-2.7744-.5684-3.9258-.3799-1.1504-.9229-2.0859-1.6309-2.8066-.707-.7197-1.4912-1.21-2.3525-1.4697-.8613-.2607-1.9648-.3906-3.3115-.3906-.6475,0-1.3037.0215-1.9687.0645Z" style="fill:#003142;"/><path d="M210.1765,97.5395h-7.3008c-.0342.5029-.0508.8779-.0508,1.125,0,1.8408.2871,3.2246.8633,4.1484.5752.9258,1.4336,1.3877,2.5762,1.3877,1.5508,0,2.6504-.6943,3.2988-2.084h.6133c-.2725.8691-.8145,1.5488-1.624,2.0391s-1.6914.7354-2.6465.7354c-.8867,0-1.7236-.2236-2.5127-.6709-.7881-.4482-1.4336-1.0811-1.9365-1.8994s-.7549-1.8105-.7549-2.9785c0-1.6533.4863-3.0283,1.458-4.124.9717-1.0947,2.1865-1.6426,3.6436-1.6426,1.373,0,2.4336.418,3.1836,1.2529.75.8359,1.1465,1.7393,1.1895,2.7109ZM207.9392,97.0278c.0254-.1963.0381-.3711.0381-.5244,0-.75-.2197-1.332-.6582-1.7451-.4395-.4131-.9785-.6201-1.6172-.6201-1.5518,0-2.4766.9629-2.7744,2.8896h5.0117Z" style="fill:#003142;"/><path d="M212.2351,104.8013v-3.4395h.499c.5791,1.9863,1.6152,2.9795,3.1064,2.9795.6475,0,1.1318-.1963,1.4512-.5879.3193-.3926.4795-.8223.4795-1.292,0-.5449-.1709-.9922-.5117-1.3418-.3496-.3496-1.0273-.7715-2.0322-1.2666-1.0576-.5195-1.8164-1.0312-2.2764-1.5342-.46-.4941-.6904-1.1035-.6904-1.8281,0-.6904.2471-1.3486.7422-1.9756.4941-.626,1.1885-.9395,2.084-.9395.9111,0,1.666.3711,2.2627,1.1123.1279-.1279.2939-.4385.499-.9336h.4727v3.2354h-.4727c-.1709-.7754-.501-1.4434-.9912-2.001-.4902-.5586-1.0674-.8379-1.7324-.8379-.5117,0-.9248.1582-1.2402.4736s-.4736.6816-.4736,1.0996c0,.46.1748.8564.5244,1.1885.3408.3408.9932.7285,1.9561,1.1641,1.4492.6562,2.3359,1.2949,2.6602,1.918.3232.6309.4854,1.2354.4854,1.8154,0,.9121-.2998,1.6533-.9014,2.2246-.6006.5713-1.3574.8564-2.2695.8564-.9629,0-1.8193-.3965-2.5693-1.1895-.2305.2559-.418.623-.5625,1.0996h-.499Z" style="fill:#003142;"/><path d="M224.1257,93.5757v7.3008c0,1.1162.0176,1.8203.0518,2.1094.0332.29.1572.5117.3701.665s.5928.2305,1.1387.2305h.2686v.5879h-5.6387v-.5879h.4346c.6055,0,.999-.0879,1.1826-.2627.1836-.1738.29-.3828.3193-.626.0303-.2432.0449-.9482.0449-2.1162v-3.1709c0-1.2275-.0576-1.9775-.1729-2.25-.1152-.2734-.2686-.4434-.46-.5117s-.5264-.1025-1.0039-.1025h-.3447v-.5879c1.5166-.1533,2.6934-.3789,3.5283-.6777h.2813ZM221.658,88.2309c0-.3662.1299-.6816.3906-.9463.2598-.2637.5732-.3965.9395-.3965s.6777.1328.9336.3965c.2559.2646.3838.5801.3838.9463,0,.375-.1279.6953-.3838.959-.2559.2646-.5674.3965-.9336.3965s-.6797-.1318-.9395-.3965c-.2607-.2637-.3906-.584-.3906-.959Z" style="fill:#003142;"/><path d="M235.4285,94.9184c.7246-.8184,1.458-1.2275,2.1992-1.2275.4092,0,.7266.1104.9531.332.2256.2217.3389.4648.3389.7285,0,.5635-.2559.8447-.7676.8447-.2812,0-.5244-.1748-.7285-.5244-.1875-.3242-.3838-.4863-.5889-.4863-.3232,0-.6816.2217-1.0732.665.4424.6992.665,1.4404.665,2.2246,0,1.0234-.3672,1.9268-1.0996,2.7109-.7334.793-1.9697,1.2188-3.708,1.2783-1.8076.0596-2.7109.4268-2.7109,1.0996,0,.3154.2051.5371.6133.665.4014.1367,1.2451.2383,2.5322.3066,1.4062.0684,2.4883.1982,3.2471.3906.7588.1914,1.3643.5771,1.8164,1.1563.4512.5801.6768,1.2705.6768,2.0713,0,1.126-.46,2.0332-1.3809,2.7236-.9199.6904-2.2461,1.0361-3.9756,1.0361-1.5859,0-2.8564-.3066-3.8105-.9209-.9551-.6133-1.4316-1.3896-1.4316-2.3271,0-.5195.1357-.9463.4092-1.2783.2725-.332.6602-.499,1.1631-.499.1367,0,.2598.0215.3711.0645-.5293.5791-.793,1.1934-.793,1.8408,0,.75.3516,1.3701,1.0547,1.8604s1.7539.7354,3.1514.7354c1.2451,0,2.2148-.249,2.9092-.748.6943-.499,1.042-1.1357,1.042-1.9111,0-.8525-.3115-1.4541-.9336-1.8027-.6221-.3418-1.7305-.5459-3.3242-.6143-1.833-.0762-3.0215-.3027-3.5674-.6777-.5449-.3662-.8184-.8389-.8184-1.4189,0-1.1162.7803-1.8203,2.3398-2.1094-.8096-.4775-1.4189-1.0234-1.8281-1.6367-.4092-.6143-.6133-1.2998-.6133-2.0586,0-1.0654.4199-1.9717,1.2588-2.7168.8398-.7461,1.835-1.1191,2.9854-1.1191,1.4238,0,2.5664.4473,3.4268,1.3428ZM229.6755,97.7056c0,1.0996.2256,1.9053.6777,2.416.4512.5117,1.0264.7676,1.7256.7676.6475,0,1.2041-.2539,1.6689-.7607.4639-.5068.6963-1.3877.6963-2.6406,0-1.2607-.2471-2.1309-.7412-2.6084-.4951-.4766-1.0527-.7158-1.6748-.7158-.7842,0-1.373.2939-1.7646.8828-.3926.5879-.5879,1.4746-.5879,2.6592Z" style="fill:#003142;"/><path d="M242.3328,93.5757h.3447c.1963.5283.3076,1.249.333,2.1611.6133-.7246,1.2568-1.2666,1.9307-1.624.6729-.3584,1.376-.5371,2.1094-.5371.835,0,1.5195.1748,2.0518.5244.5332.3496.876.7773,1.0293,1.2852.1543.5068.2305,1.2461.2305,2.2178v3.2734c0,1.21.0215,1.9482.0645,2.2119.042.2646.1768.4629.4023.5947s.6416.1982,1.2461.1982v.5879h-5.3564v-.5879h.2422c.6143,0,1.0146-.0898,1.2021-.2686.1875-.1797.2939-.3877.3193-.627.0264-.2383.0391-.9414.0391-2.1094v-3.376c0-.8262-.041-1.417-.1221-1.7705s-.2979-.667-.6514-.9395c-.3545-.2725-.8037-.4092-1.3496-.4092-.6221,0-1.2168.1855-1.7832.5557-.5674.3711-1.1016.9277-1.6045,1.6689v4.2705c0,1.21.0234,1.9482.0703,2.2119.0469.2646.1826.4629.4092.5947.2256.1318.6455.1982,1.2588.1982v.5879h-5.293v-.5879c.5879,0,.9971-.0596,1.2275-.1797.2305-.1191.373-.2998.4287-.543.0547-.2432.083-1.0039.083-2.2822v-3.1201c0-1.2187-.0244-1.958-.0703-2.2178-.0469-.2598-.1836-.4561-.4092-.5889-.2266-.1318-.6465-.1982-1.2598-.1982v-.5879c.9375-.1025,1.8965-.2979,2.877-.5879Z" style="fill:#003142;"/><path d="M260.156,99.2143c0-1.6025.5371-2.9434,1.6113-4.0215,1.0742-1.0781,2.3955-1.6172,3.9639-1.6172,1.5762,0,2.9023.541,3.9766,1.624,1.0732,1.082,1.6104,2.4209,1.6104,4.0146,0,1.7646-.5449,3.1514-1.6367,4.1621-1.0908,1.0098-2.4082,1.5146-3.9502,1.5146-1.543,0-2.8584-.5137-3.9443-1.541-1.0869-1.0264-1.6309-2.4053-1.6309-4.1357ZM262.279,99.2778c0,1.8584.3018,3.1602.9072,3.9062s1.4531,1.1191,2.5449,1.1191c1.1162,0,1.9707-.373,2.5635-1.1191.5918-.7461.8887-2.0479.8887-3.9062,0-1.8408-.2939-3.1533-.8828-3.9375-.5879-.7842-1.4443-1.1768-2.5693-1.1768-1.1172,0-1.9717.3906-2.5635,1.1699-.5928.7803-.8887,2.0947-.8887,3.9443Z" style="fill:#003142;"/><path d="M275.8826,93.5757h.3457c.1963.5283.3066,1.249.332,2.1611.6143-.7246,1.2578-1.2666,1.9307-1.624.6738-.3584,1.377-.5371,2.1104-.5371.835,0,1.5186.1748,2.0518.5244.5322.3496.876.7773,1.0293,1.2852.1533.5068.2305,1.2461.2305,2.2178v3.2734c0,1.21.0205,1.9482.0635,2.2119.043.2646.1768.4629.4023.5947.2266.1318.6416.1982,1.2471.1982v.5879h-5.3574v-.5879h.2432c.6133,0,1.0146-.0898,1.2021-.2686.1875-.1797.2939-.3877.3193-.627.0254-.2383.0381-.9414.0381-2.1094v-3.376c0-.8262-.04-1.417-.1211-1.7705s-.2988-.667-.6523-.9395-.8037-.4092-1.3486-.4092c-.6221,0-1.2168.1855-1.7842.5557-.5664.3711-1.1016.9277-1.6045,1.6689v4.2705c0,1.21.0234,1.9482.0703,2.2119.0469.2646.1836.4629.4092.5947s.6455.1982,1.2598.1982v.5879h-5.293v-.5879c.5879,0,.9971-.0596,1.2266-.1797.2305-.1191.373-.2998.4287-.543s.083-1.0039.083-2.2822v-3.1201c0-1.2187-.0234-1.958-.0703-2.2178s-.1836-.4561-.4092-.5889c-.2256-.1318-.6455-.1982-1.2588-.1982v-.5879c.9375-.1025,1.8965-.2979,2.876-.5879Z" style="fill:#003142;"/><path d="M298.7566,96.312v3.6436c0,1.3643.0322,2.2568.0957,2.6787.0645.4219.2363.7354.5176.9404.2812.2041.8096.3066,1.5859.3066h.5752v.5879h-7.9404v-.5879h.4609c.7412,0,1.2549-.0937,1.54-.2813.2861-.1875.4668-.4795.5439-.876.0762-.3965.1152-1.3193.1152-2.7686v-8.502c0-1.3809-.0391-2.2715-.1152-2.6729-.0771-.4004-.2471-.6777-.5117-.8311-.2637-.1533-.835-.2305-1.7129-.2305h-.3203v-.5879l2.1738-.0762c1.7393-.0596,3.0947-.0898,4.0664-.0898,1.79,0,3.168.1406,4.1357.4219.9678.2812,1.7598.7803,2.3779,1.4961s.9277,1.6191.9277,2.7109c0,.9453-.2109,1.7813-.6328,2.5059-.4229.7246-1.0273,1.2744-1.8164,1.6494-.7881.375-2.1758.5625-4.1611.5625h-1.9053ZM298.7566,95.6724h1.2402c.9971,0,1.8027-.0996,2.416-.3008.6143-.2002,1.126-.6201,1.5352-1.2588.4082-.6396.6133-1.4277.6133-2.3652,0-1.4326-.3516-2.4824-1.0547-3.1523-.7031-.6689-1.8438-1.0029-3.4199-1.0029-.5801,0-1.0234.0166-1.3301.0508v8.0293Z" style="fill:#003142;"/><path d="M318.2683,102.5513h.4727c-.0771,1.458-.793,2.1865-2.1484,2.1865-.5791,0-1.0381-.1533-1.374-.46-.3369-.3076-.5566-.7627-.6592-1.3682-.8516.6055-1.6299,1.0605-2.333,1.3682-.7031.3066-1.332.46-1.8857.46-.708,0-1.3174-.2051-1.8281-.6143-.5117-.4082-.7676-.9502-.7676-1.623,0-.8779.4287-1.6455,1.2852-2.3018s2.0391-1.2959,3.5479-1.918l1.9814-.8057v-.5107c0-.7246-.0469-1.249-.1406-1.5732s-.3359-.6133-.7285-.8691c-.3916-.2559-.9072-.3838-1.5469-.3838-1.2783,0-1.9902.4268-2.1357,1.2783-.1357.8701-.4941,1.3047-1.0732,1.3047-.5205,0-.7803-.2471-.7803-.7422,0-.4854.3457-1.0078,1.0361-1.5654.6904-.5586,1.7637-.8379,3.2217-.8379,1.082,0,1.9219.1709,2.5186.5117s.9912.7285,1.1826,1.1631c.1924.4346.2881,1.0996.2881,1.9951v4.2314c0,.9893.0508,1.624.1533,1.9053s.3242.4219.665.4219c.5625,0,.9121-.417,1.0488-1.2529ZM314.5593,98.0767l-1.3936.5625c-2.1992.8945-3.2988,2.0195-3.2988,3.375,0,.5371.1406.9697.4229,1.2979.2813.3281.6475.4922,1.0986.4922.4014,0,.8652-.1318,1.3945-.3965.5283-.2637,1.1201-.6602,1.7764-1.1885v-4.1426Z" style="fill:#003142;"/><path d="M322.2439,93.5757h.3457c.1445.4775.2178,1.0527.2178,1.7256.5449-.5791,1.1309-1.0117,1.7578-1.2969.626-.2861,1.2891-.4287,1.9883-.4287,1.4482,0,2.6543.5098,3.6182,1.5283.9629,1.0186,1.4443,2.3633,1.4443,4.0332,0,1.6367-.4834,3.0049-1.4512,4.1045-.9668,1.0996-2.2393,1.6494-3.8164,1.6494-.6475,0-1.2676-.1299-1.8604-.3896s-1.1523-.6455-1.6807-1.1572v3.9766c0,1.21.0225,1.9473.0703,2.2119.0459.2637.1807.4619.4023.5947.2217.1318.6348.1982,1.2402.1982v.5879h-5.4727v-.5879h.3838c.6055,0,.999-.0879,1.1826-.2627s.29-.3838.3193-.626c.0303-.2432.0449-.9492.0449-2.1162v-9.5127c0-1.1172-.0146-1.8203-.0449-2.1104-.0293-.2891-.1514-.5107-.3643-.6641-.2129-.1543-.5918-.2305-1.1377-.2305h-.3838v-.5879c.8438-.0859,1.9092-.2988,3.1963-.6396ZM322.8074,102.5005c.46.5625.9473.9863,1.4639,1.2715.5156.2861,1.0586.4287,1.6299.4287.9629,0,1.8027-.4131,2.5186-1.2402.7158-.8262,1.0742-2.1436,1.0742-3.9512,0-1.5684-.3457-2.7402-1.0361-3.5156s-1.5127-1.1641-2.4668-1.1641c-.5889,0-1.1465.1494-1.6758.4482-.5283.2979-1.0313.75-1.5078,1.3545v6.3682Z" style="fill:#003142;"/><path d="M343.1111,97.5395h-7.3008c-.0342.5029-.0508.8779-.0508,1.125,0,1.8408.2871,3.2246.8623,4.1484.5752.9258,1.4346,1.3877,2.5762,1.3877,1.5518,0,2.6514-.6943,3.2988-2.084h.6143c-.2734.8691-.8145,1.5488-1.624,2.0391s-1.6924.7354-2.6465.7354c-.8867,0-1.7246-.2236-2.5127-.6709-.7881-.4482-1.4336-1.0811-1.9365-1.8994-.5039-.8184-.7549-1.8105-.7549-2.9785,0-1.6533.4863-3.0283,1.458-4.124.9717-1.0947,2.1865-1.6426,3.6436-1.6426,1.3721,0,2.4336.418,3.1836,1.2529.75.8359,1.1465,1.7393,1.1895,2.7109ZM340.8738,97.0278c.0254-.1963.0381-.3711.0381-.5244,0-.75-.2197-1.332-.6582-1.7451-.4395-.4131-.9785-.6201-1.6182-.6201-1.5508,0-2.4756.9629-2.7744,2.8896h5.0127Z" style="fill:#003142;"/><path d="M348.4685,96.2476c.2891-.7578.7607-1.3936,1.4121-1.9043.6523-.5117,1.2891-.7676,1.9121-.7676.5625,0,1.0059.1748,1.3291.5244.3242.3496.4863.707.4863,1.0742,0,.2471-.083.46-.249.6387-.167.1787-.3691.2686-.6074.2686-.4268,0-.751-.3154-.9717-.9463-.1543-.4258-.3838-.6387-.6904-.6387-.3672,0-.8057.249-1.3174.748-.5117.498-.8398,1.0156-.9844,1.5527-.1455.5371-.2178,1.2744-.2178,2.2119v1.8672c0,1.1162.0146,1.8203.0449,2.1094.0303.29.1514.5117.3643.665s.5928.2305,1.1387.2305h.3574v.5879h-5.5615v-.5879h.2686c.5107,0,.876-.0703,1.0928-.2109.2178-.1406.3477-.3389.3906-.5947.042-.2559.0635-.9893.0635-2.1992v-2.9541c0-1.125-.0146-1.8301-.0449-2.1152-.0303-.2861-.1514-.5078-.3643-.665-.2129-.1582-.5928-.2363-1.1377-.2363h-.2686v-.5762c.8008-.0938,1.8496-.3447,3.1455-.7539.2471.6738.3828,1.5645.4092,2.6719Z" style="fill:#003142;"/><g id="_0hKp0I"><path d="M25.0679,49.1896c.0633-.1549.0678-.3695.2329-.4877.336-.2405,1.9891.1507,2.5051.199,1.8693.1749,3.7405.2271,5.6189.1922.1922,1.5017.2779,3.0072.3839,4.5165.0024,1.5342.0373,3.1843.1233,4.7463.0007.012.0306-.0925.0688-.2302.1746.4616.099,1.1151.096,1.6335-.0207.17-.0549.2102-.1027.1207-.055.5025-.0207.8786.1027,1.1284,0,.1905.001.387,0,.5765-.1196.2894-.1676.6366,0,.8648-.0004.032.0004.0641,0,.0961-.0207.1703-.0551.2105-.1034.1207.0151,1.7843.001,3.4561-.0422,5.0153l.0496.1488c-.0408,1.857-.1011,3.7165-.1424,5.5747-.7807.5588-1.7328.2758-2.5949.3353-.2042.0141-.7127.361-1.0088.0473l.1144-.0476c-1.4619-.057-2.9709-.1815-4.3408-.5289-.7636-.1607-1.532-.2888-2.3053-.3844-.8008-.1707-1.6142-.3372-2.4071-.5392.441-3.6908.7599-7.442,1.4466-11.0872l.6652-4.2029c-.0137.0745-.0433.0342-.0889-.121.162-.9681.3832-1.9225.5763-2.8826.1809-.5909.415-1.4212.3842-2.1139.1002-.4273.2856-.8888.3842-1.2491.1639-.2417.3169-.9674.3842-1.4413Z" style="fill:#cf9e2a;"/><path d="M28.91,30.1646c.1713-.1471.7153-.8122.6714-.1465-.0554.8392-.4836,1.5502-.8635,2.2603-.3762.6272-.7987,1.2244-1.2676,1.7915.0781-.0901.0845-.0467.0189.1302-3.0415,3.6603-7.935,5.4886-12.1987,7.3025-.6256.2057-1.266.4619-1.9211.7687-.4727.2693-.7609.4614-.8645.5765-1.3608.8026-2.8276,1.9692-3.4579,3.4591-.3346.7634-.5587,1.5641-.6724,2.4021.0077.439.0718.8553.1921,1.2491.001.032-.001.0641,0,.0961-.1325.9271-.0495,2.6827.1921,3.5552.001.032-.0011.0641,0,.0961-.1336.9989-.0983,2.2566.096,3.2669.0009.032-.0009.0641,0,.0961-.0382.4104-.0702.8108-.0961,1.2011.1065.79.1131,1.7655.092,2.6259-.0005.0223-.0406.0435-.092.0645.2049.4113.1533,1.0201.096,1.4893.0582.5149.075,1.0334.0503,1.5555l.0457-.1142c.1772.6465.0954,1.4333.096,2.1139-.098.4729-.098.9533,0,1.4413-.0001.032,0,.0641,0,.0961l-.0701,1.6909.0701-.1535c.1776.5452.0953,1.243.096,1.8256-.0544,1.076-.0586,2.1486-.0483,3.2278,0,.0087-.0292-.1309.0483-.153.1769.6801.0956,1.4968.096,2.21-.0678.6281-.0703,1.2582-.0077,1.8904l-.0883.0794c.1628.3734.1915,1.2664,0,1.6335l.1053.033c-.0663.3653-.0373.4343.0868.2072-.0202.2235.04.2863-.1405.484-.3831.4195-1.4866.8212-2.0469.931-1.0415.2041-3.3314.1805-4.152.6988-.1824-.0418-.2342-.2183-.1555-.5297.2634-1.1704.4433-2.339.5397-3.5059.2894-1.7609.5761-3.5246.8645-5.2847.2526-.9071.3806-1.8039.3842-2.6904.0092-.0469-.0148-.1024.0008-.1426.0195-.0467.0491-.0545.0953-.0495.1737-.1247.0502.0227.051.0127.0423-.5376.1166-1.1413.2372-1.6461.1333-.8441.2293-1.6769.2882-2.4982.0598-.3252.4134-.755.198-1.2825l.5704-3.6179c.3074-2.0352.6102-4.1116.9086-6.2293l-.0442-.4007c.2368-1.9294.461-3.8768.672-5.8136.1666-1.5295.1555-3.0579.4807-4.5636.1655-.3897.3256-.8061.4803-1.2491.1835-.4057.4077-.79.6724-1.153.3163-.4307.5257-.7809.9605-1.0569.6061-.54,1.2847-.9951,2.0171-1.3452.969-.441,1.9616-.8253,2.9776-1.153,1.7029-.5715,3.5776-1.1133,5.2829-1.8256.8579-.1761,1.9728-.7816,2.5934-1.2491.8512-.493,1.8996-1.2286,2.6895-1.8256,1.1142-.7569,2.1708-1.7177,3.1697-2.8826Z" style="fill:#cf9e2a;"/><path d="M38.8034,73.8838c.0036.0313-.0015.0643,0,.0961-.0773.8094-.0773,1.6101,0,2.4021-.0004.032.0005.0641,0,.0961-.1013,1.3481-.1654,2.6933-.1921,4.0356-.0046.1264.0494.3173-.0961.3843-.151.8209-.1611,1.8284-.1624,2.7516,0,.0092-.0074-.1531.0663-.1573.1616.1046.0932.395.0961.5765-.0293.7312-.0293,1.4679,0,2.21.2968,1.655.4733,3.3445.5296,5.0284l.0467-.128c.1643.1058.0895.3945.0961.5765-.0914,1.5948.2261,3.3896.5306,5.0349.1274.6884.352,1.5938.622,2.1715.0497.1626.439.9766.3829,1.0526-.4123.1175-.8081.3735-1.1268.6529-.0682.0598-.2359-.0026-.0246.1201.7864-.0307,1.5228.0654,2.2092.2883,1.1762.6114,2.1856,1.6358,3.4579,2.21.1843.1194.4404.2475.7684.3843.6912.1673,1.3635.3275,2.0171.4804.2494.1127.545.2197.6724.4804.0264.7279-.0049.8825-.8081.8954-.4522.0025-.8873.0563-1.3051.1616-.0638.0027-.1282-.0018-.1921,0-.9004-.0752-1.7969-.1073-2.6895-.0961-1.1073-.1289-2.3193-.5399-3.4108-.5754-1.3161-.0429-2.5184.2289-3.8892-.0011-.059-.0622-.174-.0884-.3449-.0788-.181-1.2449-.1599-2.6174.1528-3.8608.1425-.7113.2113-1.5055.1641-2.2717-.0003-.0046-.03.0239-.068.0618-.1843-.4929-.2517-1.0278-.3842-1.5374-.0815-.6006-.2415-1.2092-.4803-1.8256-1.1887-3.2235-2.9433-7.4955-2.7895-10.9097l.4842-5.3288c.0624-.3711.0439-.7799-.0556-1.2265-.0571-1.2782-.1026-1.6381-.1365-1.0796l-.0799-.5615c1.6649-.6258,3.1275-1.6846,4.7864-2.3211.362-.0532.7192-.1496,1.0716-.2892l.081.097Z" style="fill:#cf9e2a;"/><path d="M20.1691,75.6133c.0598-.1855.1445-.3737.2126-.5571,1.9216-.2832,3.9527-.0817,5.8364.369-.4691,1.4849-.9505,3.0735-1.6136,4.481-.1532.3251-1.3985,2.7007-1.5538,2.7215-.181.6313-.3091,1.2719-.3842,1.9217-.6048,2.2923-1.5225,4.4951-2.3053,6.726-.3086.6607-.587,1.3931-.6724,2.1139-.0718.2051-.1835.3969-.1939.6233-.019.047-.0485.0535-.0942.0493-.2046.464-.2686.7522-.1921.8648-.3096.9189-.5142,1.8802-.6569,2.8533-.1274.8693-.258,1.7381-.2083,2.6233-.9125-.1815-1.9746-.2019-2.7844.3371.5357-.0228,2.4038.1174,2.6419.6232.1239.2631.1025,1.0248.1697,1.3676.2393,1.22,1.0797,2.8453-.3147,3.5337-1.0067.2818-1.9538.2281-2.9776.0961-.5974-.1549-1.918-.8094-1.9301-1.4872-.0183-1.0287,1.2128-3.7654,1.5185-5.0259.3652-1.506.4972-3.0363.6042-4.5777.0288-.4148.0579-4.5664.2876-4.5712.1692-1.4397.3293-2.881.4803-4.3239.2041-1.1021.6839-2.9025,1.1063-3.9379.6203-1.5208,1.762-2.8962,2.3517-4.4216.3207-.6742.6462-1.6154.6724-2.4021Z" style="fill:#cf9e2a;"/><path d="M37.0745,31.606l-.0403.5366c.2581,2.0816.1761,3.9219.0403,5.9972-.2183,2.1287-.6273,4.2052-1.1436,6.2809-2.0796.6354-4.3255.6557-6.4803.4328-.5561-.0575-2.2496-.2807-2.6806-.4893-.9429-.4565-2.4724-3.1989-2.7587-4.2066-.2993-.4339-.3314-.7542-.0961-.9609.9502-.8551,1.9878-1.6308,2.8858-2.5445,1.8387-1.8709,3.2621-4.172,3.9291-6.7356,1.9747.2191,4.0064.0428,5.6245-1.191.2559.0178.6666,2.5076.7198,2.8804Z" style="fill:#cf9e2a;"/><path d="M14.1179,27.282c1.3901-1.661,3.2351-1.9062,5.3507-1.1304l.2203-.0226c.5463.0794,1.4195.5239,1.9211.7687l1.2487.5765c.1761.0788.2676.1206.0808.122.4055.073.7948.1924,1.1679.3584.7906.2416,1.5886.5607,2.3999.7224.6769.1349,1.3668.0847,2.0178.2858-1.3931,1.8114-3.0418,3.1996-4.994,4.3726-.9015.4427-1.83.8911-2.7855,1.3452-3.1924,1.6171-6.8855,2.0087-9.7658,3.6348-.182.1028-1.5985,1.1472-1.6639,1.073.1935-1.1497.9769-2.0589,1.3883-3.1743.2646-.7174.4858-1.5576.7244-2.3021.4944-1.4854.9746-2.9908,1.4408-4.516.3503-.8134.6794-1.4271,1.2487-2.1139Z" style="fill:#cf9e2a;"/><path d="M52.1548,11.524c.1219.0014.1646.0298.0961.0961.4977-.0827,1.1627-.0753,1.6809,0,.4606-.0732.9321-.0728,1.3928,0,1.5108-.0459,3.0246-.062,4.5416-.0482.1207.0055.1451,1.3212-.0764,1.4856-1.1234.4613-1.3494,1.0208-1.3649,2.1501-.381.3701-.8447.8456-.6028,1.409.0239.0825.165.1737.1532.3381-.0066.0922-.1417.1814-.1532.2385-.1916.2699-.298.8639,0,1.0569.5982.3849.7213.194.8645.9609-.0097.5851.8617.9776,1.3707,1.0993.1774.2592.2648.5013.2622.7263.015.0645.067.1676.0961.2883.004.572.2022,1.3933.4803,1.7295.3276.9254,1.4171,2.7965,2.2092,3.363.2217.1546.1314.2347-.2709.2403-1.9442.0448-3.9255.0177-5.881-.0128l.1966.0607c-.7588.2199-1.6403.0368-2.4292.0975-1.2125-1.3337-1.7792-3.2254-2.1531-4.9781-.399-1.8704-.5565-3.7806-.6046-5.6889.0517-1.2195.0837-2.4686.0961-3.7474-.0128-.195-.0603-.8137.0961-.8648Z" style="fill:#cf9e2a;"/><path d="M27.9495,8.5453c.3467.436.7949.8204,1.3447,1.153.5339.4135,1.107.7059,1.7289.9609.2328.1471.237.2376.0125.2715-.9078.3394-1.7764.6973-2.6059,1.0737-.0739.1053-.2189.0666-.2882.0961l-1.4408.6726c-1.4053.7981-2.8644,1.6094-4.4653,1.9229-.1839-.2188.3722-.2887.5565-.4047.5847-.3677.9778-.7997,1.4115-1.3261.3902-.668.7811-1.4483.8645-2.21.0545-.165.2498-.4169.1445-.5761-.2764.3606-.5192.7602-.8196,1.1019-.8213.9345-2.0045,2.2556-3.0411,2.9152-.5618.3575-.8929.45-1.5661.3066-.0753.0729.3944.6832.4796.7684.9768.572,2.3677.3983,3.3618,0,.126-.0315.2974.0208.4822-.0435.3377-.1174.8751-.5962,1.243-.6841.1234-.0295.125.0325.1929.1017-.2118.5689-.2773,1.1762-.4519,1.7563-.3519,1.1692-.9695,2.4435-1.9465,3.1934-.7773.5151-1.6634.8299-2.6583.9444l-.2233.1126c-.5498.0339-1.0885-.068-1.6329-.097,1.7301-2.2867-.3426-4.06-.8645-6.2446-.2158-1.4716-.1978-2.7966.2882-4.2278.3005-.7283.672-1.2783,1.2487-1.8256.3678-.2294.72-.4856,1.0566-.7687,2.469-1.3982,5.4568-.5734,7.5882,1.057Z" style="fill:#cf9e2a;"/><path d="M17.2877,1.4349c.7066.5713,1.4972,1.5848,1.9211,2.4022.1685.3855.1935.4541.2882.8648.2109.7367.3798,1.477.3842,2.2435l-.096.0626c-.6192.308-.7546.6691-1.2988,1.046-.086-.0227-.1051-.1528-.142-.1812-1.5923-1.7498-4.5894-1.6984-6.3395-.3844-.3954.1837-.816.5129-1.2487.6726-.5639.0987-1.0121.1948-1.3447.2883-.039.0054-.1275.0829-.2882.0961-.8584.0055-1.6909-.0906-2.4974-.2883-.5939-.2142-1.1703-.4064-1.7289-.5765-.8245-.427-1.74-1.1194-2.2092-1.9217-.0447-.0801-.2544-.5977-.1521-.5908.4065.1398.8094.2727,1.2087.3987,1.3221.206,2.647.2729,3.9382-.1922l1.5368-.5765,2.4974-.7687c.3062-.0542.4996-.1796.5451-.191.1775-.0444.7244-.0174.9477-.0052,1.7451.0954,3.2606.9466,4.5109,2.1175-.0041-.3584-.3291-.8457-.5287-1.1526-.2753-.3617-.5953-.6902-.9605-.9609-2.6166-1.608-4.5488-.7456-7.204,0-.2841-.013-.8001.1024-.9605.2883-.2985.0773-.6607.2409-.9605.2883-.8542.0494-1.6867.0173-2.4974-.0961-.7929-.149-1.5613-.4373-2.3053-.8648-.6959-.281-1.1892-.9033-1.5368-1.5374C.6185,1.7256.0217.4659.2387.3528c.1181.0551.23.1275.3358.2173.4361.3695.9377.6121,1.4651.7758.0754.0234.0776.156.0895.1607.0496.0197.9042.1103,1.0388.1204.5788.0916,1.2883.0689,1.825,0,.0029-.1056.3155-.0828.3842-.0961.7861.0044,1.6814-.292,2.4013-.5765.1246-.0346.4578-.2301.6724-.2883l.3014.0169C10.4378.176,12.1623-.0218,13.9258.0897c1.2449.1712,2.3685.6162,3.3618,1.3452Z" style="fill:#cf9e2a;"/><path d="M41.781,51.5918c-.3434-4.8988-.8293-9.7689-1.3462-14.6516-.0337-.3188-.1988-.7807-.193-1.0618.0049-.238.7708-1.6047.9161-1.6774.1898-.0949.1342.1457.1417.239.0276.3414.0495.6712.0971,1.0093l-.0627.175,1.1193,7.2236.2076,1.6413c-.0321-.1491-.0035-.1474.0806-.0078.0071.0427.0736.1444.0961.2883-.0699.3851.0062.9424.0961,1.153.1067.6961.2874,1.4181.3842,2.1139-.0291.7843.0931,1.6525.2383,2.4462-.1954.2321-.1787.2494.0498.052.004.0309.0774.1407.0961.2883-.0076.5913.0412,1.1979.1463,1.8197-.0896.3021-.0743.3041.0458.0059l.3705,2.1757c.5133,3.9833,1.0113,7.9704,1.5506,11.949-.0334.5417.0221,1.1357.1921,1.6335.1074.7676.2689,1.5387.3842,2.3061-.0058.4833.0121.9692.0535,1.4578l-.3416-.2087c-.1078-.0744-.7405-.2179-.7684-.3843-.6387-.1738-1.2946-.3345-1.9676-.4821.0003-.0155.2767.1164.1426.1938-.1747-.0268-.4142-.0094-.5763-.0961l-.0981-.2077-.1347-4.073-.0554.0529c-.1712-.1595-.094-.5281-.0961-.7687.0434-.2261.0495-.4541.0537-.6834.0041-.2225.014-.9484-.0537-.5657-.1756-.2211-.0944-.6594-.0961-.9609.0442-.0122.0787-.0247.0791-.0382.0125-.4372-.0109-.9588-.0377-1.4028-.0003-.0052.0154.0757-.0413.0957-.1766-.1912-.0906-.5921-.0961-.8648-.0116-1.5104-.0436-3.0158-.096-4.516-.1554-1.0204-.2373-2.0566-.2455-3.1086l-.1146-2.4856-.1202-.0748Z" style="fill:#cf9e2a;"/><path d="M34.5771,51.1114c-.1157-.7017-.3178-1.4017-.3846-2.1138l1.67-.2958c.4377.751.6756,1.5864.9238,2.4096.4437,1.6574.7958,3.2909,1.0566,4.9004.2652.9061.4573,1.835.5763,2.7865.0857.4594.1817.9078.2882,1.3452.0776.4394.213.8968.2882,1.3452.101,1.5568.4103,3.4665.6724,4.8043.2207,1.567.5516,3.1237.6724,4.7082-.0781.2314-.0939.5033-.0474.8157-.5905-.0135-.7668.0028-.529.049-.1348.1767-.4598.081-.6724.0961-.6294-.1032-1.3948.0743-2.0171.2883-.2514.0388-.4937.1481-.7689.0958-.0044-.0636.0032-.128.0005-.1919.0732-.8838-.0336-1.9819-.1217-2.7217l-.0704-.1609c-.0018-.0319.0018-.0642,0-.0961.0414-.8033.0228-1.6231-.0556-2.4595.02.0689.0065.12-.0404.1534-.1672-.1311-.0937-.462-.0961-.6726.1256-.2055.0564-1.1204,0-.8648-.1615-.1046-.0934-.3951-.0961-.5765.0579-.1774.0964-1.22,0-.8648-.2402-1.0766-.1042-2.1987-.1921-3.2669l-.1313-2.2808-.0608.0708c-.2293-.2806.0622-.7901.001-1.0859-.0116-.0561-.1413-.0601-.1931-.5476.0812-.477-.0175-1.1299-.096-1.4413-.0853-.8384-.2693-1.646-.2882-2.4021-.0505-.5869-.1262-1.1781-.227-1.7736.0834-.3598.063-.3771-.0612-.052Z" style="fill:#cf9e2a;"/><path d="M30.3508,13.4457c.2091.1986,1.6872,2.0396,1.7051,2.1767.0619.4745-.9005.433-1.2247.611.1736.2474.303.5034.2974.8178-.0049.2755-.3593.7478-.2978.8134.0342.0365.4179-.0506.4814.3426.0468.2899-.1563.648-.193,1.0036.2069.4602.2256.8281-.0961,1.2491-.2217.178-.2264.1717-.5241.1967-.9858.0829-2.4606.0471-3.4683.0017-.1964-.0089-.337-.0927-.522-.1015.3518.4184.8943.5961,1.3447.8639.1568.1031.275.2566.3548.4603-.0132.5216-.0034,1.0408.0294,1.5575-.0255.4978.0269.8221-.6084.6706-.0852-.0203-.3673-.1352-.6403-.1902-.5993-.2292-1.2077-.3573-1.825-.3843-.2514-.065-.5749-.2328-.7684-.2883-.368-.171-.7523-.2671-1.1526-.2883-.1726-.0504-.9433-.2265-.9539-.3347.2529-.2867.252-1.2622.3991-1.4691.0377-.0531.6858-.3024.843-.4061.4407-.1902.8249-.5105,1.1526-.9609,1.1213-1.7015,1.5413-3.7527,1.8408-5.7488.5398-.1895,1.0733-.4151,1.6172-.5929.2048.0497.5075-.0261.908-.2274.6126-.2.9358-.3045,1.3012.2274Z" style="fill:#cf9e2a;"/><path d="M46.1995,30.2608c-.4494.2396-.9372.4041-1.4408.4804-.4064.2194-1.3494.584-1.7993.5115-.0073-.0012.0945-.0626.0703.065.007.059-.4064.3217-.3859.0479.0484-.6465.3718-1.3272.482-1.9696.148-.5688.2807-1.377.1921-2.0178.0181-.2134.0883-.4615.0961-.5765.0984-.4857.0679-1.035,0-1.5374l.053-.0884c1.2193.1239,1.8394-.4085,2.7326-1.0647l.7684-.7687c.6604-.7563,1.3223-1.4046,2.0171-2.1139.5308-.4311,1-.916,1.4408-1.4413.1117-.1495.4224-.6086.6272-.291.0428.0664.2137,1.3046.2672,1.5583.0684.3248.3418,1.0445.3422,1.2788.0012.6783-1.4761,3.5196-1.8924,4.2445-.931,1.6211-1.7284,3.0534-3.5705,3.6828Z" style="fill:#cf9e2a;"/><path d="M15.3665,44.9618c.2561.1771.3062.5589.1503,1.1454l.0418.2959c-.0036.0316.0044.0648,0,.0961-.1218.2975-.1858.6178-.1921.9609l-.0961,1.4413c.0184.5542-.183.7646-.1811.8103.0096.2301.1095.4552.0887.7793-.0915,1.4234-.2916,2.8372-.1953,4.2721-.7966-.0609-1.5949.1322-2.3057.4799-.5062.3576-.733.1797-.6806-.5337l-.0878-.0428c-.3248-1.7515-.5996-3.5413-.6763-5.3288-.0267-.6226-.1003-2.4585.0274-2.9592.1594-.6252,1.909-1.866,2.547-1.9747.4376-.0746,1.178.3296,1.5599.5581Z" style="fill:#cf9e2a;"/><path d="M61.664,8.1611c.0469.8117-.1452,1.5163-.5763,2.1139-.0544.041-.0949.1316-.1824.1496l-8.5589.043c.0222-1.0131.3363-2.3255-.1537-3.2569-.1516-.2881-.3933-.3216-.4215-.5867.1481.0134.2789.0942.4323.0931,2.2278-.0155,4.5018-.0418,6.7199.0087,1.4381.0328,2.5348-.4538,2.7406,1.4353Z" style="fill:#cf9e2a;"/><path d="M31.9837,24.3034c-.0805.7624-.2726,1.531-.5763,2.3061-.2213.379-.3629.5763-.7684.7687-.4473.0982-.8955.1622-1.3447.1922-.7517.0805-1.5202.0805-2.3053,0-2.9168-.5433-5.7529-2.1731-8.7172-2.7621-.1669-.0332-.3358-.0286-.5039-.0253.0634-.1666.0989-.3231.1921-.4795.5423-.6102,1.3717-1.1122,2.2092-.9609,1.4177.3149,2.7182.6959,3.9014,1.143l.1328.01c1.1049.336,2.2096.6327,3.3618.7687.2695.1848,1.2174.2393,1.6748.146.8554-.1743,1.0473-1.3835.8225-1.8756l-.384-.6714c1.1076-.5621,2.7413.0176,2.305,1.4401Z" style="fill:#cf9e2a;"/><path d="M24.9718,45.154c.5504.2167,1.2569.3406,1.825.2883.0611.0101.2898.022.2882.0961.3138.1009.7827.2088,1.1526.0961.469.047,1.0291.0783,1.4408.1922,1.9825.183,4.1782.1798,6.1899-.2864-.0029.6885.0031,1.3777.0181,2.0676-.0726.0971-1.1111.1637-1.3088.1416-.0213-.0024.3971-.0153.3837.0951-4.1063.8384-8.4789.1598-12.3947-1.2077l.2919-1.8678c.3833.0447.7949.0613,1.1744.1232.3244.053.68.2137.9389.2618Z" style="fill:#cf9e2a;"/><path d="M12.1007,57.1647c.037-.1904.0113-.2927.146-.4781.3444-.4741,2.5469-1.3741,2.9347-.8977.2987.776.8836,1.5173,1.2416,2.2406.2637,1.1412.4238,2.2942.4803,3.4591,0,.032.0007.0641,0,.0961.026,1.109-.5272,1.2894-.7544.1312l-.1101-.3234c-.0128-.0595-.0685-.1529-.0961-.2883-.0015-.4808-.0423-1.0977-.1355-1.5673-.0013-.0068.0236.0886-.0566.1261-.2005.0586-.1743.2492-.223.4016-.2633.8236-.3952,1.4103-.083,2.2585.1693.46.928,1.4596.9616,1.8262.0436.4762-.5075.2668-.7537.0794-1.0354-.7882-1.4489-2.3736-1.6315-3.6053l-.1898.0466c.1781.2893.0611.6327.1058.9513.1028.7336.5196,1.4454.4212,2.1729-.9434-.7749-1.1777-1.7908-1.3957-2.9324-.0267-.1401.0862-.3126-.1896-.2379-.1003.3992-.0051.9971.1921,1.3452.019.0792.1468.2904.1921.4804-.0072.5871-.3097.1759-.4793-.1423l-.3851-.8185c-.2862-1.125-.3823-2.278-.2882-3.4591.0033-.0317-.0037-.0645,0-.0961.1183-.221.1503-.4772.0961-.7687Z" style="fill:#cf9e2a;"/><path d="M19.881,62.7377l-.2882,1.5374c-.2578,2.3318-.62,5.0196-1.1526,7.3025.1209.4798-1.4802.3916-1.4793.3055.2911-1.423.5281-2.8381.7109-4.245.5725-3.1289,1.2128-6.2216,1.9211-9.3203.1151-.1859.2226-.707.1921-1.0569.1071-.4533.2876-.9584.3842-1.3452.1903-.5677.3184-1.1442.3842-1.7295.0559-.207.1426-.4003.1921-.5765.3876-.8951.7582-2.2208.9605-3.2669.1257-.3548.262-.7366.4052-1.084.0499-.1211.178-.3015.1729-.0206-.7336,4.5125-1.5773,9.0082-2.4031,13.4997Z" style="fill:#cf9e2a;"/><path d="M32.6561,26.7056c.3994-.8495.7065-2.3505.3422-3.5387.0907-.1946,1.9919.2271,2.1805.4564l.7431.1998c.3466.1324.6654.3488,1.051.4376.2698.0622.5494-.0225.774.1389.4768.0344.829.1946,1.0566.4804-.5205.1537-1.5654,1.2822-2.0171,1.7295-.3665.3569-.7507.7092-1.1526,1.0569-1.3928,1.2619-3.5276,1.3538-5.2823.9598l1.2957-.5759c.3192-.0872.9255-1.3317,1.009-1.3447Z" style="fill:#cf9e2a;"/><path d="M42.1653,25.2643c.0218.4688-.0102.9493-.0961,1.4413-.3742,2.6787-1.0696,4.8994-2.7855,7.0143-.2476.1298-.2034-.3277-.0961-.4804.0373-.5967.1185-1.2081.2438-1.8342.1207-.4834.0161-1.0274-.4359-1.2405-.3839-.5823-1.3434-1.9222-1.4245-2.5724-.0566-.454.3195-.5294.56-.7906.2765-.2182.5967-.5384.9605-.9609.1057-.134.1947-.28.331-.3896.8766-.1419,1.8343-.1887,2.7427-.1869Z" style="fill:#cf9e2a;"/><path d="M51.674,8.2567c-.2926-.2652-1.2882.2484-1.3451.4527-.1871.6716.2888,1.1868.9382,1.2551.1685.0177.6704-.1924.2851.1461-1.0834.9519-2.5513-.2571-2.5745-1.5178-.0355-1.9261,2.5612-2.4217,2.6963-.3362Z" style="fill:#cf9e2a;"/><path d="M55.3246,11.5241c1.5675-.007,3.1395.0056,4.7071-.0005.0556.0554-.0244,1.4532-.0937,1.5665-.0451.0738-.9675.3687-1.2394.8964-.211.4096-.0223.7628-.1279,1.1212-.0936.3177-1.0247.8272-.7488,1.509-.0681-.2355-.1476-.2664-.0737-.6032.0723-.3298.4519-.5144.2661-.8374.0526-.0428.2218.1629.3383-.0002.0309-.6865-.0134-1.2087.5311-1.6747.5214-.4462,1.1449-.3576.9545-1.2082l-.2869.0483c.3805-.1619.3015-.3426.2873-.7212-1.4971.0474-3.0153-.0059-4.514.0001-.0839-.0273-.0827-.0594,0-.0961Z" style="fill:#cf9e2a;"/><path d="M60.0311,15.6558c.3628.0004.7285-.0156,1.0972-.0481l-.0406.6247c-.0564.1118-.0744.1379-.1921.1922-.3846.0163-.7773.0747-1.178.1751-.7307.2139-.9784.0595-.7431-.4634.2352-.2399.7298-.4098,1.0566-.4804Z" style="fill:#cf9e2a;"/><path d="M29.6784,45.8266c.4948-.013.9962-.0043,1.4925-.0046,1.1627-.0006,2.3589.0506,3.537-.1055.4071-.0539.829-.1266,1.2139-.2742v2.0658c0,.02.1365.1054.0967.1431l-1.0573.1932-.3837-.0951c.1732-.0092,1.1999-.1521,1.2438-.1973.0457-.047.0995-1.2413-.1889-1.1969.2905-.0603.1366-.4534.1924-.7206-1.3621.3283-2.77.3478-4.1637.382-.1954.4313-.1071.0199-.2198-.0042-.1063-.0227-.2543.0588-.3687.0494-.6244-.0512-1.2426-.1614-1.874-.14-.0055-.1735.3577-.0919.4798-.0951Z" style="fill:#cf9e2a;"/><path d="M59.9351,17.1931l.1884.0274c.959-.3237,1.2982.4148.2797.6715-.4904.0686-.9666.1559-1.4286.2619-.042-.0024-.1823.0133-.1918.0006-.0516-.069-.0028-.5153.0869-.6341.1396-.1847.814-.2872,1.0654-.3273Z" style="fill:#cf9e2a;"/><path d="M61.0881,14.022c.4422.8404-1.5063,1.1226-1.7246.8602-.4251-.5112,1.3688-1.0314,1.7246-.8602Z" style="fill:#cf9e2a;"/><path d="M6.9139,54.2821l.1403.3973-.9097,6.5204c-.1615.0253-.09-.1811-.0951-.2878-.0097-.203-.0072-.4076.0124-.6107.1935-2.004.6066-4.0193.8521-6.0192Z" style="fill:#cf9e2a;"/><path d="M12.0048,7.4883c-.2126-.0731.142-.2188.1892-.2432.2902-.1502,1.1292-.6489,1.2652-.7003.0489-.0185.1915.0858.309.0698.7741-.1056,1.5341-.249,2.3209-.1649.054.0058.0427.1476.1183.1659.4585.1114.9019.3296,1.3682.2009-.2013.3635.3416.5478.6213.7711.043.0344.3419.2422.1473.2852-2.2659-1.7401-3.8659-1.5333-6.3395-.3844Z" style="fill:#cf9e2a;"/><path d="M42.4534,42.848c-.3819-2.329-.8587-4.6984-1.1709-7.0536-.0214-.1618-.1192-.2738.1143-.345.348,2.4695.7837,4.9221,1.0566,7.3986Z" style="fill:#cf9e2a;"/><path d="M35.9219,23.823l-.8166-.1195c-.1314-.3162-1.8613-.5646-1.9689-.4566.0255.4744.1835,1.1319.1438,1.5852-.0475.5425-.429,1.3983-.5334,1.9695-.0387-.0147-.0821-.0974-.0907-.096.2957-1.1769.6378-2.4764.1926-3.6508,1.119-.0969,2.0746.3867,3.0732.7682Z" style="fill:#cf9e2a;"/><path d="M39.1875,91.7557c.0844,2.3589.4641,4.9527,1.1526,7.2064-.0042.1498-.2667.0047-.2689-.0439-.003-.0676.1007-.1888.0607-.3619-.146-.6328-.3779-1.2574-.5157-1.8969-.3519-1.6332-.4329-3.0702-.5808-4.8008-.0212-.2479-.114-.2524.1519-.1029Z" style="fill:#cf9e2a;"/><path d="M37.0745,38.1398c-.3285.0383-.1403-.0993-.1249-.2683.1267-1.3923.4192-4.1293.1243-5.4335-.0167-.074-.1815-.0592-.1797-.1049.0059-.1502.0941-.5833.1804-.7271.3266,2.2868.2348,4.244,0,6.5338Z" style="fill:#cf9e2a;"/><path d="M41.781,51.5918c.2637-.1725.1783-.0915.1926.1424.0498.8181.0184,1.6741.0848,2.4094.0163.1811.2007.1359.1965.1801-.0097.1023-.1332.2617-.1328.4245.0006.2421.001,1.1832.0368,1.3074.0298.1034.215.042.2945.0526l-.1914.095c-.0705.3068.066.6649.0639.935-.0006.0758-.0648.1158-.0646.1228-.0273.0839-.0594.0827-.0961,0-.0304-.5372-.1921-1.3583-.1921-1.8737v-1.5374c0-.6154-.1439-1.5707-.1921-2.258Z" style="fill:#cf9e2a;"/><path d="M19.6889,26.129c-.0123-.0018-.006.1158-.2296.0952l-2.1224-.4811-.097.2895c-.0946-.0505-.1067-.2319-.1648-.2727-.1359-.0955-1.2724.3438-1.4845.4492-.5013.2489-.7996.5423-1.1846.9287-.0442.0444-.2476.3361-.2881.1443.632-.7624,1.3713-1.4159,2.3778-1.6089,1.1466-.2199,2.0986.2099,3.1932.4559Z" style="fill:#cf9e2a;"/><path d="M63.1048,26.4174c.1668.1193.4813.1367.4803.2883h-5.523c-.0463,0-.1444.0665-.2431.0663-.2129-.0005-.4294-.0652-.6694-.0663-.6532-.0031-1.3172.0268-1.9701,0-.1167-.0048-.3572.0726-.3347-.0951,2.5726-.1173,5.275.1515,7.833.0046.1791-.0103.3599.0216.427-.1977Z" style="fill:#cf9e2a;"/><path d="M17.6718,67.6381c.1903.315-.0248.8629-.0869,1.2147-.0426.2411-.0922.3538-.0993.3925-.1603.8735-.2444,1.7623-.4859,2.6199.4489-.098,1.3348.288,1.3305-.3481l.11.0605c-.0249.1068.0193.2655.0006.3849-.5178-.0093-1.0313-.0238-1.5369.0951.1626-1.488.4991-2.9506.7679-4.4195Z" style="fill:#cf9e2a;"/><path d="M13.9258.0897c-.1182.1799-.1974.1307-.3627.1292-1.4556-.0132-3.2871-.1515-4.639.4909-.1261.0599-.2038.0731-.1867.2438h-.0932s-.1935-.2874-.1935-.2874c1.819-.4927,3.5749-.8378,5.475-.5765Z" style="fill:#cf9e2a;"/><path d="M2.9756,82.147c-.0308.0195-.4349.6277-.3774.2481.2166-1.4302.5272-2.8574.7616-4.2837.1752.0978.0898.3457.0691.4996-.0455.3374-.0743.7375-.1259,1.0491-.1304.7877-.5413,1.7097-.3274,2.487Z" style="fill:#cf9e2a;"/><path d="M36.7863,51.1114c.464,1.5388.8184,3.1362,1.1526,4.7082.0133.1365-.0187.2006-.0961.1922-.0901-.4236-.2185-1.3943-.5756-1.5386-.0526-.1579.1951-.0466.1964-.1482-.2726-.9886-.5158-1.9856-.7677-2.9796-.0431-.17-.2394-.2617.0904-.234Z" style="fill:#cf9e2a;"/><path d="M34.0007,58.1257c-.004.3831.0038.7695-.001,1.1525-.1474.0026-.1355-.4203-.1371-.5281-.0087-.5699.0397-1.1572.0165-1.7266-.0321-.7895-.1231-1.6044-.1705-2.401-.0173-.291-.0602-.7636.1-1.0129.1052,1.4994.2078,3.008.1921,4.516Z" style="fill:#cf9e2a;"/><path d="M34.0968,62.5456c-.0212,1.7622-.0572,3.5181-.0961,5.2847-.265.0708-.1517-.196-.1479-.3464.0114-.4482.1416-1.5546.0541-1.898-.0277-.1089-.1956-.0198-.1956-.1098s.1679-.0009.1956-.1097c.1214-.476-.0267-1.8688-.0023-2.489.0073-.1849-.0988-.3855.1921-.3319Z" style="fill:#cf9e2a;"/><path d="M23.3389,56.8765c.3062-.0469.1759.127.1636.3116-.017.2555-.0827.682-.1266.9427-.1607.9555-.4136,2.0089-.6134,3.0695.1283-1.4466.337-2.8936.5763-4.3239Z" style="fill:#cf9e2a;"/><path d="M39.6678,66.293l-.0946.048c-.1948-.7324-.0987-1.6727-.4814-2.3067.32-.0531.06-.3415.0247-.6012-.0642-.4724-.1555-.9602-.2059-1.4293-.0169-.1574-.0796-.4163.0848-.5151.2677,1.5961.4468,3.2024.6724,4.8043Z" style="fill:#cf9e2a;"/><path d="M8.931,62.4494c-.0273.0839-.0594.0827-.0961,0-.0105-.487-.0231-1.0054-.096-1.4893v-2.6904c0-.3888-.1363-.845.0961-1.2011.0509,1.7901.1016,3.5896.096,5.3808Z" style="fill:#cf9e2a;"/><path d="M12.8692,29.3959l-1.3218,4.5885-.119-.0725c.4824-1.5055.8115-3.0546,1.4408-4.516Z" style="fill:#cf9e2a;"/><path d="M16.0388,86.3749c.3405.3248-.2585.9049.1918,1.0084-.1815.1512-.3414.3094-.2927.5675.0097.0514.3599.0738.1961.2504-.029.0312-.1528-.1401-.1907-.0475-.0465.1137-.1614.8911-.1833,1.0659-.063.5024-.0452,1.0664-.1064,1.5752-.109.0167-.0883-.0962-.0951-.0961.0413-1.4367.2189-2.9119.4803-4.3239Z" style="fill:#cf9e2a;"/><path d="M39.0915,91.1792c-.0044.1134.0737.4033-.0951.3839-.0343-1.7686-.3315-3.5256-.4812-5.2842.0273-.0839.0594-.0827.0961,0,.0546.6457.2273,1.3859.2877,2.0663.079.8906.2264,1.9603.1925,2.8341Z" style="fill:#cf9e2a;"/><path d="M36.2099,101.0761c-.1495,1.1641-.1824,1.9292-.1317,3.1063.0241.5593-.3119.7401.5626.7374l-.2388.0958c-.1452-.0244-.3277.0181-.4808.0005.0788-.5927-.1125-1.2029-.1022-1.7767.0124-.6881.2071-1.4805.2949-2.1633.0273-.0839.0594-.0827.0961,0Z" style="fill:#cf9e2a;"/><path d="M42.2613,57.2609c.007.2768-.1318.9204.1912.8662l.0002.0935-.1968.0545.2557,2.4138c-.1297.3629.1713.813-.1543,1.088-.0087-.4377-.0961-.9144-.0961-1.2972v-1.5374c0-.442-.0678-1.1825-.096-1.6815h.0961Z" style="fill:#cf9e2a;"/><path d="M42.9336,71.1934c-.1137-.0608-.1846-.0857-.1911-.2395.0351-1.3366-.1323-2.6517-.0971-3.9883.0032-.1222-.0783-.4855.0951-.4799l.1931,4.7077Z" style="fill:#cf9e2a;"/><path d="M30.0626,23.5347c.1308-.2177.1568.1695.1573.2211.0082.7173-.1951,1.705-1.0823,1.7659-.241.0165-.9878-.0082-1.2481-.0512-.1794-.0297-.3811.0822-.3244-.2062,1.5997.1888,2.6171.3105,2.4974-1.7295Z" style="fill:#cf9e2a;"/><path d="M26.0283,73.2111c.5888.1056,1.4439.213,1.8699.2678.9327.12,1.8955.2071,2.8362.2137.0053.1738-.3573.0915-.4798.0951-1.2815.0373-2.942-.2553-4.2263-.4804-.0839-.0273-.0827-.0594,0-.0961Z" style="fill:#cf9e2a;"/><path d="M25.7403,33.0472c1.1983-.9058,2.0599-1.9291,3.1697-2.8826.1917.0406-.0999.244-.1442.2883-.8751.875-1.6879,1.7628-2.6842,2.5032-.0824.0612-.2628.3181-.3413.0911Z" style="fill:#cf9e2a;"/><path d="M17.7679,14.3104c-.3573-1.4957-.3032-2.7946.2882-4.2278.2085.095.0232.297-.0143.4178-.2605.8381-.4239,1.5221-.3687,2.4156.0259.4198.2937,1.006.0948,1.3945Z" style="fill:#cf9e2a;"/><path d="M59.9351,17.1931c.3756-.06,1.1671-.3223,1.1506.2321-.0182.6129-1.6168.7568-2.1112.7288.0695-.2381.2601-.1688.4311-.1936.2339-.0339,1.3996-.1774,1.4774-.2997.0583-.0917-.0074-.3384.0116-.4677l-.6723.0971.048.1922-.3353-.2892Z" style="fill:#cf9e2a;"/><path d="M12.0047,58.0295l.2247.0908c-.0488-.0022-.1261.0115-.1309.0671-.0929,1.0944.0043,2.2273.1943,3.3012v.0961c-.4818-1.2964-.429-2.191-.2882-3.5552Z" style="fill:#cf9e2a;"/><path d="M.7666,1.9153c.0983.1947.5532.2662.5769.2893.0439.0427-.1555.3852-.0957.4793.1044.1644.5726-.4142.6705-.4799.0493.3008-.311.3858-.2545.7265.0068.0407.5808.4883.6397.5221.0506.0291.0493.0612,0,.0961-.842-.4547-1.1754-.7952-1.6329-1.6335.0273-.0839.0594-.0827.0961,0Z" style="fill:#cf9e2a;"/><path d="M31.0232,10.6592c.145-.0075.6257-.0775.6717.0949l-3.2651,1.2503c-.0559-.2591.1316-.1847.2848-.2387.8095-.285,1.6681-.5484,2.4042-.9629l-.3833-.0485c-.0252-.1618.1809-.0896.2877-.0951Z" style="fill:#cf9e2a;"/><path d="M60.7035,18.6344c.2917.5744-.2022.6763-.6864.5787-.8035-.162-.3016-.461-.2341-.3996.0753.0684-.194.2824-.1361-.0829.3372-.1324.7167-.299,1.0566-.0961Z" style="fill:#cf9e2a;"/><path d="M9.3151,80.0332l-.0973.1913-.094.0003c.0697-.1577-.0008-.3128-.0008-.4318v-1.6335c0-.6438-.1323-1.3498.0961-1.9698.0007,1.1741.1936,2.7637.096,3.8434Z" style="fill:#cf9e2a;"/><path d="M32.9441,76.9585c.0015-.128-.0023-.2568.001-.3843.3204.2465-.044.9732.3829,1.2978.0311.0863-.1836.0171-.1837.0874-.0004.2276.128.6669.1297.9689.0024.4293-.0326.8664-.0427,1.2967l-.0951-.9604c-.0442-.7313-.2003-1.5847-.1921-2.3061Z" style="fill:#cf9e2a;"/><path d="M7.6824,5.3744c-1.5236.5752-2.3471.5207-3.9382.1922-.0839-.0273-.0827-.0594,0-.0961,1.4002.3008,2.5571.2304,3.9382-.0961Z" style="fill:#cf9e2a;"/><path d="M38.9955,30.1647c.0307-.1885.2631.1044.2925.1401.0843.1026.1847.1942.189.3396l.1899-.287c-.0756.7633-.2796,1.5098-.3763,2.2735-.0444.3508-.0325.3304-.103.6086-.0273.0839-.0594.0827-.0961,0,.0824-.6468.4283-2.1304.2156-2.6659-.0478-.1204-.2236-.2752-.3116-.4088Z" style="fill:#cf9e2a;"/><path d="M46.5836,105.6882l-.048-.3854c.0953.0735-.018.1782.1846.2016.1929.0223,1.688-.0761,1.7909-.146.2007-.1364-.0295-.5777.1857-.7271.0796.163.1419.7444.0064.8162-.3241.1717-1.676.222-2.1196.2407Z" style="fill:#cf9e2a;"/><path d="M21.706,50.3427c.1941.1022.0658.3116.0203.452-.2761.8517-.48,1.5945-.7196,2.4515-.006.0216-.1666.6115-.2612.3634.3075-1.0942.5806-2.1945.9605-3.2669Z" style="fill:#cf9e2a;"/><path d="M51.9627,16.1362c-.0311-1.2328-.0553-2.5355.0961-3.7474.0726,1.1109-.0068,2.2525.0167,3.4043.003.1475.1359.2706-.1128.3431Z" style="fill:#cf9e2a;"/><path d="M8.5468,50.0544c.036,1.1851.1534,2.3738.1921,3.5552-.2952.0533-.1802-.1477-.1916-.3317-.0573-.9287-.0938-1.8614-.131-2.7961-.0058-.146-.1421-.5112.1304-.4273Z" style="fill:#cf9e2a;"/><path d="M38.6112,80.5137l-.2247-.0908.1309-.067.2859-3.8778c-.0211,1.3812-.1421,2.6754-.1921,4.0356Z" style="fill:#cf9e2a;"/><path d="M16.9033,61.4886c-.2288-.1459-.0707-.5071-.1013-.6113-.0656-.2233-.214-.3796-.088-.8816l-.291-1.9662c.4427.8943.483,2.4329.4803,3.4591Z" style="fill:#cf9e2a;"/><path d="M23.6271,15.2713l-.0949.3837c.0484-.403-.489-.0066-.7704-.0947l.0476.1929c-.8592-.2635-1.84.2215-2.5441-.4819,1.1282.4887,2.2199.2854,3.3618,0Z" style="fill:#cf9e2a;"/><path d="M38.5152,58.7983c-.0273.0839-.0594.0827-.0961,0-.0553-.2872-.2602-.6193-.1928-.9617l-.1906.0977c.1394-.5742-.0648-1.3203-.1928-1.9225l.0961-.1922c.2095.9855.3918,1.988.5763,2.9787Z" style="fill:#cf9e2a;"/><path d="M19.2087,3.8371c-.0711.2289-.1513-.0743-.1897-.1436-.4656-.8407-.8015-1.3823-1.5684-1.989-.0475-.0376-.368-.2086-.163-.2696.9653.7084,1.4366,1.2937,1.9211,2.4022Z" style="fill:#cf9e2a;"/><path d="M15.0783,106.3607c.198-.1301.5627-.0119.8167.0041.4597.0288.2154.0268.3826.0695.2771.0708.4071.0367.3386-.2653.1605-.0417.0405.1745.1575.1977.3124.0619.9342-.1653,1.2823-.1022-.81.3999-2.1011.3234-2.9776.0961Z" style="fill:#cf9e2a;"/><path d="M23.1469,19.5952c-.8228.6316-1.8434.993-2.8816,1.0569l.0007-.243c.8671.1919,1.8148-.2835,2.5248-.7375.0846-.0541.2951-.2866.356-.0764Z" style="fill:#cf9e2a;"/><path d="M23.531,33.3355c-.6968.4187-1.5364.8917-2.2707,1.2351-.099.0463-.4417.2583-.5148.1101.8132-.4119,1.598-.865,2.3981-1.3001.0928-.0504.3338-.2327.3874-.0451Z" style="fill:#cf9e2a;"/><path d="M23.0508,34.8728c.2125.0728-.1419.2189-.189.2434-.6517.3381-1.3101.7048-1.9843.9936-.123.0527-.3298.209-.42.0121.8663-.3618,1.7825-.7795,2.5934-1.2491Z" style="fill:#cf9e2a;"/><path d="M15.1744,37.9476l-2.9776,1.153c1.0394-.612,1.8715-.7818,2.9776-1.153Z" style="fill:#cf9e2a;"/><path d="M8.8349,56.9725c-.1607-.0996-.1808-.2604-.1943-.4304-.0573-.7208-.0596-1.7167-.0584-2.4533.0003-.1692-.0885-.3078.1567-.3833.0357,1.0881.0647,2.1829.096,3.2669Z" style="fill:#cf9e2a;"/><path d="M43.3179,48.0367c.1149.8262.1814,1.6712.2882,2.4982l-.1904.1461c.2326-.2455-.021-.4455-.0435-.6176-.082-.6256-.0085-1.2507-.2449-1.8848-.1243-.3333-.0314-.0982.1906-.142Z" style="fill:#cf9e2a;"/><path d="M36.1139,69.2716c.2893-.0537.1866.1467.1923.3317.0262.8455.2097,1.7388-.0002,2.5508-.0405-.9617-.1368-1.9233-.1921-2.8826Z" style="fill:#cf9e2a;"/><path d="M58.6864,19.2109c.1002.3811.5689.7114.8938.883.1748.0923.5125.0897.6211.1957.1761.1717.0742.5595.1179.7469l-.0947.0485c-.0233-.8988-.1575-.5946-.674-.8654-.2419-.1268-.8027-.4993-.9181-.7277-.095-.1881.0565-.267.0539-.2811Z" style="fill:#cf9e2a;"/><path d="M30.3508,13.4457c-.0052-.0049-.0541.0961-.1423.0139-.107-.0997-.1775-.357-.2997-.3865-.0632-.0152-1.0717.3003-1.2505.3577-.0303.0097-.5172.4532-.5168.0149.6234-.2037,2.0125-.8804,2.2092,0Z" style="fill:#cf9e2a;"/><path d="M24.2034,24.4956c-.1052.2704-.1532.1373-.3182.084-1.0402-.3363-2.6774-1.1853-3.7161-1.237,1.4404.0938,2.6599.7352,4.0342,1.153Z" style="fill:#cf9e2a;"/><path d="M28.7179,32.2785c-.3828.7157-.718,1.283-1.2487,1.9217-.2475-.117-.0771-.2088.0246-.3172.2115-.2255.4125-.4044.5512-.6925l-.191-.1424c.3891.0342.449-.2994.6714-.53l-.1912-.1427.3837-.097Z" style="fill:#cf9e2a;"/><path d="M4.2244,72.8267c.143-.8731.2165-1.8318.3842-2.6904.2341.0693.1304.1868.1158.346-.068.7443-.2457,1.6516-.5,2.3444Z" style="fill:#cf9e2a;"/><path d="M19.4969,4.7018c.2302.2705.5761,2.1581.4673,2.2971-.0322.0411-.1479-.0066-.1791.009l-.032-.7051-.1598-.2084.188-.0883c-.226-.3914-.1925-.9059-.2843-1.3043Z" style="fill:#cf9e2a;"/><path d="M7.1061,4.4136c-.784.124-1.7154.1451-2.4974,0-.0839-.0273-.0827-.0594,0-.0961.7976.1244,1.7294-.1307,2.4974.0961Z" style="fill:#cf9e2a;"/><path d="M9.123,73.9798c-.0028.1385.0824.5568-.0951.576l-.0431-1.681.1382-1.9698c.0013,1.0221.021,2.0531,0,3.0747Z" style="fill:#cf9e2a;"/><path d="M38.5152,80.898c.0395.8202-.2063,1.7438-.0961,2.5943l-.0951.4799c-.0222-1.125-.0021-2.2433.0961-3.362.1614-.0255.0899.1808.0951.2878Z" style="fill:#cf9e2a;"/><path d="M23.7231,72.8268c.0859-.2159.409.0202.4863-.0418.0872-.0698.0341-.2756.1851-.246l.062.2941c.508.045,1.0983.2931,1.5718.378v.0961c-.7664-.1344-1.5429-.318-2.3053-.4804Z" style="fill:#cf9e2a;"/><path d="M36.1139,69.1755c-.0425-.767-.113-1.5364-.096-2.3061.0031-.1387-.0826-.5565.0951-.576-.0397.8459.1199,1.6746.1293,2.5179.0018.1586.0604.2593-.1283.3642Z" style="fill:#cf9e2a;"/><path d="M5.2809,65.8124c.3157-.0383.1544.0924.1284.2718-.1084.7491-.2999,1.4896-.4165,2.2265-.0273.0839-.0594.0827-.0961,0,.1257-.8211.2344-1.6841.3842-2.4982Z" style="fill:#cf9e2a;"/><path d="M35.6336,60.6239c-.1276-.6741-.2195-1.5024-.1921-2.21.0044-.1134-.0737-.4033.0951-.3839l.096,1.0094.001,1.5844Z" style="fill:#cf9e2a;"/><path d="M58.9745,16.1362l.0005.4799c.4882-.0697.9727-.1284,1.4563-.2252.1401-.0281.3708-.1501.4643.0336-.3149.1452-1.6552.3801-1.9579.294-.1796-.0511-.1164-.426.0368-.5822Z" style="fill:#cf9e2a;"/><path d="M2.3034,3.4527c.4223.2424,1.36.6284,1.8256.4811l-.0974.1906c.2065-.0723.4826.1783.5771.193v.0961c-.6734-.125-1.6975-.5365-2.3053-.8648v-.0961Z" style="fill:#cf9e2a;"/><path d="M.6705,1.9153C.3322,1.2953.1339.7375,0,.0396.2192-.0955.4171.4367.5745.5701c-.2407-.03-.3143-.2475-.278.1343.0333.3498.4382.8273.4701,1.2109h-.0961Z" style="fill:#cf9e2a;"/><path d="M20.1692,23.3425c-.4061-.0202-1.1807.1931-1.5308.4384l-.6784.5224c.3536-.5932,1.1976-1.0492,1.8832-1.0616.2146-.0039.309.0997.326.1008Z" style="fill:#cf9e2a;"/><path d="M43.8942,52.6488c.0034.1596-.0011.3207-.001.48-.5057-.3982-.0943-.399-.0903-.4371.0153-.1473-.1902-1.222-.2172-1.5217-.0143-.1591-.1185-.2769.1164-.3469.0746.5902.1795,1.2346.1921,1.8256Z" style="fill:#cf9e2a;"/><path d="M55.3246,11.5241v.0961c-.4633.0019-.9323,0-1.3928,0h-1.6809c-.0383,0-.0481.7295-.0961-.0961,1.0552-.0035,2.1146.0047,3.1697,0Z" style="fill:#cf9e2a;"/><path d="M29.2942,27.5703c.0767.0046.1154.0109.0961.0961-.8876.123-1.504.0711-2.4013-.0961.1132-.1374.2212-.1428.388-.1272.7355.0688,1.1129.2248,1.9172.1272Z" style="fill:#cf9e2a;"/><path d="M60.7035,18.6344c.3132.1869.1303.6196-.1432.6747-.43.0866-1.1833-.0183-1.1057-.578.0596-.0159.1497.0162.1923-.0005l.2386.0965-.2392.2874c.3127-.0334.7043.0488,1.0016.0021.1207-.0189.0292-.3669.0555-.4822Z" style="fill:#cf9e2a;"/><path d="M20.1691,75.6133c.1744.0912.0903.3392.0538.4847-.1528.6106-.352,1.1402-.5605,1.7478-.0219.064-.0725.4108-.1657.1696.2957-.7649.4211-1.623.6724-2.4021Z" style="fill:#cf9e2a;"/><path d="M9.027,46.307c-.2619.6189-.5275,1.737-.5763,2.4021-.0273.0839-.0594.0827-.0961,0,.0296-.4259.1387-.9384.2196-1.3655.0312-.1648.1743-.3927.1719-.5037-.0016-.0736-.3033.0051-.1985-.2446l.2866.0967.1928-.3851Z" style="fill:#cf9e2a;"/><path d="M31.9837,24.3034c.0278.7585-.195,1.6531-.5763,2.3061l.3577-1.3237.1236-1.2701c.1606-.0257.0912.1817.0951.2878Z" style="fill:#cf9e2a;"/><path d="M12.1968,39.1006c-.6872.4046-1.3398.9152-2.0171,1.3452.4938-.6206,1.279-1.0769,2.0171-1.3452Z" style="fill:#cf9e2a;"/><path d="M46.3915,105.6882c-.9035.0257-1.7947.0081-2.6895-.0961.4464-.2602,1.0316-.0166,1.4857.0057.3972.0195.8532-.1581,1.2037.0904Z" style="fill:#cf9e2a;"/><path d="M25.0679,10.7553c.1841.0844.0424.3078.0024.434-.2682.8484-.3265,1.1198-.8669,1.7759.3064-.7324.6145-1.4539.8645-2.21Z" style="fill:#cf9e2a;"/><path d="M7.7784.9545c.2264.108-.3767.2074-.4081.2164-.4816.1392-1.0233.3224-1.5085.4142-.1472.0279-.3917.1242-.4848-.0541.8025-.1548,1.615-.3582,2.4013-.5765Z" style="fill:#cf9e2a;"/><path d="M46.3915,70.713c.0914.6086.1361,1.2267.2873,1.8255-.2347-.0657-.4343-.4791-.5754-.5764.1537-.0234.2748.2378.291-.0491.0247-.4357-.3202-.8537-.0028-1.2Z" style="fill:#cf9e2a;"/><path d="M36.2099,101.0761h-.0961c.0383-.2978.163-.6077.1905-.9145.037-.4123-.0069-.8737.0016-1.2955.0032-.1576-.0972-.5563.1391-.1075-.0214.6285.0163,1.2332-.0675,1.8624-.0239.1796-.158.3795-.1677.4551Z" style="fill:#cf9e2a;"/><path d="M11.7166,4.0292c-.7985.3387-1.6744.505-2.4974.7687.9201-.3851,1.484-.5892,2.4974-.7687Z" style="fill:#cf9e2a;"/><path d="M37.0744,72.2503c.591-.4413,1.4614-.3189,2.16-.4817l-.1429.1935c-.6942.0493-1.3379.1835-2.0171.2883Z" style="fill:#cf9e2a;"/><path d="M24.2994,51.88c.1799.0933.0782.3368.0532.4839-.0959.5647-.2212,1.1295-.3284,1.6925l-.1091-.0625c.14-.696.2225-1.424.3842-2.1139Z" style="fill:#cf9e2a;"/><path d="M50.4258,19.7874c-.235.3147-.5979.9934-.9123,1.0496l-.5285.3917c.4737-.4836.896-1.0285,1.4408-1.4413Z" style="fill:#cf9e2a;"/><path d="M16.0389,61.3925l.092-.0425c-.1248.2706.1788.3531.1799.3755.0139.2869-.1353.4589.2577.7236.4425-.0639.0861-.6232.3349-.8644-.0075.3545.1481,1.0161-.3326.9646-.4639-.0497-.4592-.8199-.5319-1.1568Z" style="fill:#cf9e2a;"/><path d="M19.6888,93.3891c-.1603-.1983.0538-.6651.1242-.8846.1358-.4232.2575-.8837.5482-1.2293-.2433.6933-.4294,1.4201-.6724,2.1139Z" style="fill:#cf9e2a;"/><path d="M61.0877,10.275l.3585-.7463c.2091-.4475-.0531-.9943.2178-1.3676.0737.6768.0163,1.6666-.5763,2.1139Z" style="fill:#cf9e2a;"/><path d="M26.7968,45.4423c.0321.3191-.0681.1368-.2496.1062-.5031-.085-1.2228-.0466-1.5754-.3944.5994.1114,1.2222.1884,1.825.2883Z" style="fill:#cf9e2a;"/><path d="M60.8956,23.0544c-.0621.241-.2168-.1772-.2265-.2047-.1442-.4103-.4482-1.1241-.2538-1.5249.1392.5774.2821,1.1698.4803,1.7295Z" style="fill:#cf9e2a;"/><path d="M23.0507,82.6275c-.0235.6612-.2176,1.2901-.3842,1.9217-.1722-.0796-.0416-.3169-.0164-.4473.1011-.5243.2439-1.0413.3066-1.5718.0453.0091.0874.0983.0941.0974Z" style="fill:#cf9e2a;"/><path d="M12.2928,61.4886c.2878.2685.356.7146.5752,1.01.1832.2469.1688.123.2892-.0491.0439.1842.0764.3872.0951.5765-.5313-.3177-.7549-.8906-.9596-1.4413v-.0961Z" style="fill:#cf9e2a;"/><path d="M34.8652,52.937c-.2003-.5876-.1885-1.2213-.2882-1.8256l.0959-.2393c.0079.6276.2446,1.3148.2742,1.9251.0036.0751-.0822.1279-.0819.1399Z" style="fill:#cf9e2a;"/><path d="M43.5099,71.2895l-.1426-.1938c.2931.0811,1.9478.2547,2.0634.3872.0564.0646-.0969.0882-.0958.0949-.5975-.1657-1.2164-.1948-1.825-.2883Z" style="fill:#cf9e2a;"/><path d="M27.8534,21.4208c.108.0642.2535.077.3302.1956.1765.2732.0744,1.4257.054,1.8222-.2677-.4278.0364-1.252-.1084-1.6691-.0548-.158-.7869-.3212-.2758-.3487Z" style="fill:#cf9e2a;"/><path d="M9.1232,8.5453c-.7987.0656-1.721-.0017-2.4974-.1922-.0839-.0273-.0827-.0594,0-.0961l2.4974.2883Z" style="fill:#cf9e2a;"/><path d="M15.2705,41.5027c-.5923.252-1.1979.641-1.825.7687h-.0961c.5044-.253,1.012-.5005,1.5297-.7276.0994-.0436.339-.2263.3913-.0411Z" style="fill:#cf9e2a;"/><path d="M3.7442,5.4705v.0961c-.3973-.082-.7683-.1498-1.1521-.2878l.0955.48c-.1473-.2519-.3514-.4291-.2872-.7687.4186.2573.8676.3781,1.3438.4804Z" style="fill:#cf9e2a;"/><path d="M46.1994,103.6704c.4923-.0038,1.3635.2718,1.825.4804-.0832.1813-.3101.0459-.4359.0043-.5265-.1739-1.0535-.3211-1.5812-.4848.0411-.0583.1052-.0583.1921,0Z" style="fill:#cf9e2a;"/><path d="M29.2943,9.6983c-.0816.227-.2604-.0227-.3378-.0947-.2937-.2731-.5193-.532-.844-.7888-.0475-.0376-.368-.2086-.163-.2696.498.381.8773.791,1.3447,1.153Z" style="fill:#cf9e2a;"/><path d="M38.5152,84.0689c.0109.6848.0389,1.5342.096,2.21h-.0961c-.0546-.6414-.083-1.3178-.1031-1.9635-.0051-.1646-.2386-.2795.1031-.2465Z" style="fill:#cf9e2a;"/><path d="M12.677,55.243c-.121.0592-.616.45-.6719.3839-.0333-.2978-.0434-.6737-.0965-.9604l.1006-.0541c.0207.1448.0941.7132.235.7245l.4328-.0939Z" style="fill:#cf9e2a;"/><path d="M43.3179,27.3782c.3365-.0319.1151.0761.1033.2466-.0423.6118-.1198,1.208-.2027,1.8172l-.0926-.0461c.1126-.657.1358-1.3525.1921-2.0178Z" style="fill:#cf9e2a;"/><path d="M41.7809,101.0761c-.2041.1787-.4744-.1463-.7263-.1863-.4548-.0721-1.0981.1214-1.483-.102.5229.0534,1.1728-.0769,1.6756.0049.2464.04.3451.1854.5336.2834Z" style="fill:#cf9e2a;"/><path d="M26.7008,12.7731c.0249-.0142.0888-.1394.2161-.2122.1377-.0788.905-.3276.9355-.3675.0145-.0191-.2227-.3582.0495-.4767l.2397.3839c-.4357.1852-.9136.6004-1.4408.6726Z" style="fill:#cf9e2a;"/><path d="M6.6258,8.257v.0961c-.5492-.1347-1.2255-.4119-1.7289-.6726.0663-.1744.2986-.0157.403.0289.4405.1882.8808.3732,1.326.5476Z" style="fill:#cf9e2a;"/><path d="M35.9217,97.3287c-.1578-.6068-.407-1.1988-.4803-1.8256.1676.4545.3799.8857.5099,1.3647.038.1402.1546.3664-.0296.4609Z" style="fill:#cf9e2a;"/><path d="M38.8033,76.382c-.1591-.0998-.096-.3647-.0977-.5271-.0063-.5959-.0727-1.3158.0977-1.8751.0371.7923.0095,1.6115,0,2.4021Z" style="fill:#cf9e2a;"/><path d="M34.0968,59.7591c-.0024.4153-.0001.8338,0,1.2491-.2903.0536-.1856-.147-.1921-.3318-.0068-.1927-.0078-.3929,0-.5855.0075-.1848-.0989-.3854.1921-.3318Z" style="fill:#cf9e2a;"/><path d="M44.7587,30.7412h.1921c-.5657.3163-1.275.4982-1.9211.5765-.0019-.0155-.0842-.0509-.0973-.0942.6348-.0536,1.2289-.29,1.8263-.4823Z" style="fill:#cf9e2a;"/><path d="M15.7507,59.663c-.0026-.1026-.2094-.2768.1921-.2873-.2528.5052.3244,1.1891,0,1.7286-.0811-.3986-.182-1.0389-.1921-1.4413Z" style="fill:#cf9e2a;"/><path d="M20.5534,54.1861l.0283.4596-.4125,1.27c.14-.5604.2274-1.1494.3842-1.7295Z" style="fill:#cf9e2a;"/><path d="M26.989,23.9191c-.6071-.1223-1.2257-.2293-1.825-.3843.0934-.1773.3371-.0874.4842-.0533.4108.0953.9831.2259,1.3408.4376Z" style="fill:#cf9e2a;"/><path d="M36.7863,26.6095c-.3504.347-.668.8814-1.1526,1.0569.2385-.2161.592-.6076.8229-.8583.1764-.1915.0852-.6197.3297-.1986Z" style="fill:#cf9e2a;"/><path d="M42.7416,44.4815l-.1554.0496c.0165-.5439-.0713-1.1257-.1327-1.683.0858.5235.199,1.0937.2882,1.6335Z" style="fill:#cf9e2a;"/><path d="M9.027,69.0794c-.0036.2553.0036.513-.001.7682-.1473.0027-.1355-.4203-.1371-.528-.008-.5354.0122-1.2581.1381-1.7776-.0012.5111.0072,1.0264,0,1.5374Z" style="fill:#cf9e2a;"/><path d="M4.9928,68.3107c-.0801.5063-.0439,1.1901-.1941,1.7308-.0425-.0137-.0784-.0957-.094-.0973.0616-.5408.1099-1.0962.1921-1.6335h.0961Z" style="fill:#cf9e2a;"/><path d="M25.0679,49.1896c.1401.3358-.1403.9003-.2418,1.2484-.0301.1033-.009.3992-.1424.1929.1352-.494.1777-.9359.3842-1.4413Z" style="fill:#cf9e2a;"/><path d="M40.3402,71.0012c.0221.2906-.0634.5882.096.8638-.223-.0044-.4494.0097-.6723.0009-.1133-.0045-.4031.0738-.3837-.0951l.8642-.0012c.02-.2213-.0595-.4342-.0773-.6483-.021-.2529-.0707-.271.1731-.1202Z" style="fill:#cf9e2a;"/><path d="M60.0311,15.6558c.3799-.0821.7627-.1233,1.1531-.0965.0138.2456.0178.4462-.0965.673v-.5755c-.2184-.1167-.8215.2812-1.0566-.001Z" style="fill:#cf9e2a;"/><path d="M15.3665,44.9618c.0825.0494.2665.0563.291.1605.0204.4302-.0507.8571-.0989,1.2808-.2948-.2525.0452-.9882-.0007-1.1851-.0257-.1101-.4177-.1604-.1914-.2562Z" style="fill:#cf9e2a;"/><path d="M46.0073,68.4069l-.0948.0485c-.0351-.5153-.3073-1.1722-.0973-1.682.0733.5406.1165,1.0933.1921,1.6335Z" style="fill:#cf9e2a;"/><path d="M23.5311,20.7482c.423-.279.7654-.6411,1.1526-.9609-.2806.4258-.3623.5569-.8114.8718-.113.0792-.1874.2589-.3412.0891Z" style="fill:#cf9e2a;"/><path d="M9.2192,4.7979c-.628.2628-.8262.4085-1.5368.5765.5441-.2054.9633-.3928,1.5368-.5765Z" style="fill:#cf9e2a;"/><path d="M3.1679,1.627c.5931.0446,1.2269-.0323,1.825,0-.0001.0053.0616-.02.0956.048.0444.0891-1.78.032-1.9703.0483l.0497-.0963Z" style="fill:#cf9e2a;"/><path d="M8.5468,42.6557l-.3584,1.3245-.1219-.0754c.1385-.6412.2073-.7794.4803-1.3452v.0961Z" style="fill:#cf9e2a;"/><path d="M42.0692,26.7056c-.1451-.3483.095-.8586.1043-1.1915.0025-.0903-.4412-.0201-.0082-.2498l.0874.0532c.0941.4744-.1205.9372-.1834,1.388Z" style="fill:#cf9e2a;"/><path d="M37.7469,24.3995c.4483-.0262.9073.1461,1.2482.4328.0033.0944-.1332.0303-.1917.0476-.3889-.359-.9368-.4202-1.4403-.3853l.3837-.0951Z" style="fill:#cf9e2a;"/><path d="M42.4534,62.6417c.0032-.1221-.0783-.4855.0951-.4799-.0198.5791.0039,1.1444.057,1.7221.023.2499.1117.2515-.1521.1031-.0025-.4463-.0117-.8992,0-1.3452Z" style="fill:#cf9e2a;"/><path d="M46.1995,30.2608c-.3088.2615-.8462.4438-1.2487.4804-.0631.0057-.1286-.0038-.1921,0,.4745-.1527.9819-.3236,1.4408-.4804Z" style="fill:#cf9e2a;"/><path d="M38.1311,26.8017c.3064-.3328.5813-.7011.9605-.9609-.2385.3024-.3645.5082-.6724.8166-.0444.0445-.2477.3361-.2882.1443Z" style="fill:#cf9e2a;"/><path d="M10.7561,8.1609c-.4671.1723-.8594.2211-1.3447.2883l-.0484-.095,1.3931-.1932Z" style="fill:#cf9e2a;"/><path d="M8.931,63.8907c-.0032.1221.0783.4854-.0951.4799-.0119-.6388.0128-1.2826-.001-1.9212h.0961c-.0015.4787.0126.963,0,1.4413Z" style="fill:#cf9e2a;"/><path d="M22.8587,27.4742c-.5766-.1934-.7764-.346-1.2487-.5765.325.103,1.0803.3116,1.2487.5765Z" style="fill:#cf9e2a;"/><path d="M19.3048,8.257c.3338-.3168.6558-.5417,1.0566-.7687l-.7198.673-.3368.0957Z" style="fill:#cf9e2a;"/><path d="M38.7073,60.1435l-.095.0485c-.1201-.4377-.1122-.9735-.1931-1.3937h.0961c.082.4404.1145.9058.1921,1.3452Z" style="fill:#cf9e2a;"/><path d="M12.9652,61.969c-.3137.0486-.0798-.3443-.2438-.5754-.0809-.1139-.2782-.0486-.2354-.1918.3726.084.0541-.5149.2871-.578-.0162.4484.0875.9085.1921,1.3452Z" style="fill:#cf9e2a;"/><path d="M24.1074,27.9547c-.2426-.0741-1.2052-.239-1.2456-.2897-.0282-.0355.017-.159-.0031-.1907.3681.1235.9199.1628,1.2487.4804Z" style="fill:#cf9e2a;"/><path d="M30.639,27.3782c-.428.2031-.8007.2262-1.2487.2883l-.0961-.0961c.4548-.0552.7382-.1941,1.1304-.2726.079-.0158.2167-.0294.2144.0804Z" style="fill:#cf9e2a;"/><path d="M42.5494,66.1969c-.0035-.4146-.0085-.8347,0-1.2491.0028-.1385-.0824-.5566.0951-.576-.0556.5826.1239,1.2769-.0951,1.8251Z" style="fill:#cf9e2a;"/><path d="M19.881,62.7377c-.0898.4882-.0832,1.0706-.2882,1.5374.0208-.1879-.0325-.4024.0265-.5967l.2616-.9407Z" style="fill:#cf9e2a;"/><path d="M34.0968,61.5848c-.0015.2876.0033.5772,0,.8648-.3837.0759-.0586-.5637-.288-.8638l.288-.0009Z" style="fill:#cf9e2a;"/><path d="M9.0271,3.837c-.3239.091-.6219.2005-.9605.2883l-.0607-.1073c.2983-.041.7256-.3964,1.0212-.1809Z" style="fill:#cf9e2a;"/><path d="M35.2494,56.7805c-.0499-.4695-.0484-.9735-.096-1.4413l.0951-.0486c-.0776.4859.2834,1.0428.0009,1.4899Z" style="fill:#cf9e2a;"/><path d="M17.1916,4.7979l-.9605-.9609c.5367.3298.626.4468.9605.9609Z" style="fill:#cf9e2a;"/><path d="M9.027,67.4459c-.0984-.3804-.2946-1.1297,0-1.4413.0005.4793.0017.962,0,1.4413Z" style="fill:#cf9e2a;"/><path d="M8.5468,42.6557v-.0961c.2525-.5234.3567-.6272.6724-1.0569l-.6724,1.153Z" style="fill:#cf9e2a;"/><path d="M12.1007,57.1647l.0968.3841.2865.0469c-.0665.1758-.2744.0328-.2865.0498-.0671.0947.3362.367-.1928.2879.027-.2306.0549-.5568.0961-.7687Z" style="fill:#cf9e2a;"/><path d="M13.3494,42.2714h.0961c-.2.2963-.6614.4001-.9605.5765l-.0961-.0942c.3108-.18.6409-.322.9606-.4823Z" style="fill:#cf9e2a;"/><path d="M23.2429,22.9582l.466-.0351.6866.3234c-.376-.1078-.7757-.1782-1.1526-.2883Z" style="fill:#cf9e2a;"/><path d="M43.414,25.2643c.2189.4647.0392,1.0841.0963,1.5871l-.0963-.0497c.0341-.5071-.0245-1.029,0-1.5374Z" style="fill:#cf9e2a;"/><path d="M8.5468,49.9583c-.0538-.0085-.1801.0165-.1919.0007-.0375-.05-.013-1.0661-.0002-1.2499h.0961c-.0287.3908.0844.8575.0961,1.2491Z" style="fill:#cf9e2a;"/><path d="M15.2705,48.9014c-.0216-.6494-.0165-.7876.0961-1.4413-.0024.4902-.002.958-.0961,1.4413Z" style="fill:#cf9e2a;"/><path d="M37.6507,74.0759c.2847-.1092.7508-.2975,1.0193-.3751.1969-.0569.1194.0619.1334.1829-.3936-.0377-.8191.4087-1.1526.1922Z" style="fill:#cf9e2a;"/><path d="M31.0232,20.46c.0267-.2213.1956-.3988.2017-.6276.0079-.2985-.1386-.3022-.1056-.6215.3094.3857.2995.9315-.0961,1.2491Z" style="fill:#cf9e2a;"/><path d="M28.2376,45.6345c-.2368.3432-.9118-.057-1.2487-.001-.0167-.109.0959-.0883.096-.0951.3836.0151.7709.0578,1.1526.0961Z" style="fill:#cf9e2a;"/><path d="M42.9337,45.9228l-.0935.0469c.0719-.3873-.2725-.8571-.0025-1.2.0566.3623.0436.8107.0961,1.153Z" style="fill:#cf9e2a;"/><path d="M46.1994,103.6704c-.064.0005-.1281-.0003-.1921,0-.197-.0611-1.0314-.227-.7684-.3843.3075.1388.7272.1536.9605.3843Z" style="fill:#cf9e2a;"/><path d="M19.7849,57.2608c.2205.3358-.1301.7496-.0982,1.105l-.0939-.0481c.0785-.3436.1096-.708.1921-1.0569Z" style="fill:#cf9e2a;"/><path d="M57.8219,18.2501c-.006-.0039-.0879.1309-.1429.0097-.128-.2822-.2052-.8897.1429-1.0667-.0715.3543-.202.7079,0,1.0569Z" style="fill:#cf9e2a;"/><path d="M19.4007,94.0617c.0038.2978-.0994.5894-.1921.8648-.3204.0285-.144-.0609-.0923-.2359.0709-.2399.1807-.4708.1903-.7261.041.0148.0786.0959.0941.0973Z" style="fill:#cf9e2a;"/><path d="M15.5586,46.4992c-.0468.3316-.1371.6417-.1921.9609.0016-.3234.0522-.6622-.0959-.9599l.288-.0009Z" style="fill:#cf9e2a;"/><path d="M35.8257,64.7556c-.0042-.2868-.0063-.578,0-.8648.0031-.1387-.0826-.5564.0951-.576-.053.4527.122,1.0275-.0951,1.4408Z" style="fill:#cf9e2a;"/><path d="M23.9152,39.1967c-.1822.2739.0056.6425.0961.9609-.1427-.1107-.4047-.6922-.378-.8106.0328-.1455.2502-.1216.2819-.1502Z" style="fill:#cf9e2a;"/><path d="M39.2837,33.7199c-.0576.071-.0727.3652-.2872.3843-.0013-.2908.0585-.5778.0951-.8648h.0961c-.0293.1156-.0314.426.0961.4804Z" style="fill:#cf9e2a;"/><path d="M35.9218,66.1969c-.0032-.2863-.0104-.5789,0-.8648.0041-.113-.0735-.4034.0951-.3839-.1262.353.2481,1.0273-.0951,1.2486Z" style="fill:#cf9e2a;"/><path d="M46.1995,24.1113l.7684-.7687c-.3537.4051-.2672.4004-.7684.7687Z" style="fill:#cf9e2a;"/></g></g></g></svg>